<?xml version="1.0" encoding="UTF-8"?>
<!DOCTYPE svg PUBLIC "-//W3C//DTD SVG 1.1//EN" "http://www.w3.org/Graphics/SVG/1.1/DTD/svg11.dtd">
<svg xmlns="http://www.w3.org/2000/svg" version="1.1" width="512px" height="512px" style="shape-rendering:geometricPrecision; text-rendering:geometricPrecision; image-rendering:optimizeQuality; fill-rule:evenodd; clip-rule:evenodd" xmlns:xlink="http://www.w3.org/1999/xlink">
<g><path style="opacity:0.18" fill="#979692" d="M 1.5,-0.5 C 1.83333,-0.5 2.16667,-0.5 2.5,-0.5C 2.5,-0.166667 2.5,0.166667 2.5,0.5C 2.16667,0.166667 1.83333,-0.166667 1.5,-0.5 Z"/></g>
<g><path style="opacity:0.09" fill="#999895" d="M 16.5,-0.5 C 16.8333,-0.5 17.1667,-0.5 17.5,-0.5C 17.3147,0.170143 16.9813,0.170143 16.5,-0.5 Z"/></g>
<g><path style="opacity:0.09" fill="#999895" d="M 21.5,-0.5 C 21.8333,-0.5 22.1667,-0.5 22.5,-0.5C 22.3147,0.170143 21.9813,0.170143 21.5,-0.5 Z"/></g>
<g><path style="opacity:0.275" fill="#979795" d="M 31.5,0.5 C 31.5,0.166667 31.5,-0.166667 31.5,-0.5C 32.1667,-0.5 32.8333,-0.5 33.5,-0.5C 33.5,-0.166667 33.5,0.166667 33.5,0.5C 32.8333,0.5 32.1667,0.5 31.5,0.5 Z"/></g>
<g><path style="opacity:0.09" fill="#9a9995" d="M 38.5,-0.5 C 38.8333,-0.5 39.1667,-0.5 39.5,-0.5C 39.3147,0.170143 38.9813,0.170143 38.5,-0.5 Z"/></g>
<g><path style="opacity:0.09" fill="#9a9996" d="M 489.5,-0.5 C 489.833,-0.5 490.167,-0.5 490.5,-0.5C 490.315,0.170143 489.981,0.170143 489.5,-0.5 Z"/></g>
<g><path style="opacity:0.09" fill="#9b9997" d="M 497.5,-0.5 C 497.833,-0.5 498.167,-0.5 498.5,-0.5C 498.315,0.170143 497.981,0.170143 497.5,-0.5 Z"/></g>
<g><path style="opacity:0.275" fill="#959591" d="M 505.5,-0.5 C 505.833,-0.5 506.167,-0.5 506.5,-0.5C 506.5,-0.166667 506.5,0.166667 506.5,0.5C 506.167,0.166667 505.833,-0.166667 505.5,-0.5 Z"/></g>
<g><path style="opacity:0.365" fill="#979693" d="M 8.5,-0.5 C 9.16667,-0.5 9.83333,-0.5 10.5,-0.5C 9.40191,0.396953 9.40191,1.23029 10.5,2C 9.55198,2.48278 8.55198,2.64945 7.5,2.5C 7.5,1.83333 7.5,1.16667 7.5,0.5C 8.16667,0.5 8.5,0.166667 8.5,-0.5 Z"/></g>
<g><path style="opacity:0.09" fill="#999896" d="M 11.5,-0.5 C 11.8333,-0.5 12.1667,-0.5 12.5,-0.5C 12.1667,2.16667 11.8333,2.16667 11.5,-0.5 Z"/></g>
<g><path style="opacity:0.09" fill="#999995" d="M 18.5,0.5 C 19.8333,1.16667 19.8333,1.16667 18.5,0.5 Z"/></g>
<g><path style="opacity:0.09" fill="#9a9b97" d="M 21.5,0.5 C 20.8333,1.16667 20.8333,1.16667 21.5,0.5 Z"/></g>
<g><path style="opacity:0.09" fill="#9a9996" d="M 24.5,0.5 C 25.8333,1.16667 25.8333,1.16667 24.5,0.5 Z"/></g>
<g><path style="opacity:0.09" fill="#999895" d="M 29.5,-0.5 C 29.8333,-0.5 30.1667,-0.5 30.5,-0.5C 30.5,0.166667 30.8333,0.5 31.5,0.5C 31.5,0.833333 31.5,1.16667 31.5,1.5C 30.2976,2.40536 28.9643,2.40536 27.5,1.5C 28.1667,0.833333 28.8333,0.166667 29.5,-0.5 Z"/></g>
<g><path style="opacity:0.09" fill="#9b9996" d="M 33.5,0.5 C 34.4916,0.32842 35.1583,0.661754 35.5,1.5C 34.8333,1.5 34.5,1.83333 34.5,2.5C 33.6618,2.15829 33.3284,1.49162 33.5,0.5 Z"/></g>
<g><path style="opacity:0.18" fill="#989995" d="M 470.5,0.5 C 471.833,1.16667 471.833,1.16667 470.5,0.5 Z"/></g>
<g><path style="opacity:0.18" fill="#989896" d="M 481.5,0.5 C 482.833,1.16667 482.833,1.16667 481.5,0.5 Z"/></g>
<g><path style="opacity:0.09" fill="#9a9996" d="M 497.5,0.5 C 496.833,1.16667 496.833,1.16667 497.5,0.5 Z"/></g>
<g><path style="opacity:0.275" fill="#989694" d="M 499.5,-0.5 C 500.5,-0.5 501.5,-0.5 502.5,-0.5C 502.918,0.221579 503.584,0.721579 504.5,1C 503.667,1.16667 502.833,1.33333 502,1.5C 500.624,1.31577 499.791,0.649106 499.5,-0.5 Z"/></g>
<g><path style="opacity:0.09" fill="#9a9895" d="M 15.5,2.5 C 14.8333,2.5 14.1667,2.5 13.5,2.5C 14.5477,0.0673178 15.2144,0.0673178 15.5,2.5 Z"/></g>
<g><path style="opacity:0.09" fill="#999995" d="M 27.5,1.5 C 26.8333,2.16667 26.8333,2.16667 27.5,1.5 Z"/></g>
<g><path style="opacity:0.09" fill="#999995" d="M 31.5,1.5 C 32.8333,2.16667 32.8333,2.16667 31.5,1.5 Z"/></g>
<g><path style="opacity:0.275" fill="#969692" d="M 35.5,1.5 C 36.8333,2.16667 36.8333,2.16667 35.5,1.5 Z"/></g>
<g><path style="opacity:0.09" fill="#9b9997" d="M 38.5,1.5 C 39.8333,2.16667 39.8333,2.16667 38.5,1.5 Z"/></g>
<g><path style="opacity:0.18" fill="#989794" d="M 484.5,0.5 C 485.525,0.896566 485.692,1.56323 485,2.5C 484.536,1.90558 484.369,1.23891 484.5,0.5 Z"/></g>
<g><path style="opacity:0.09" fill="#9a9794" d="M 3.5,-0.5 C 4.83333,-0.5 6.16667,-0.5 7.5,-0.5C 7.5,-0.166667 7.5,0.166667 7.5,0.5C 6.16667,1.83333 4.83333,3.16667 3.5,4.5C 1.25521,3.70806 0.921872,2.37473 2.5,0.5C 3.16667,0.5 3.5,0.166667 3.5,-0.5 Z"/></g>
<g><path style="opacity:0.09" fill="#9a9895" d="M 13.5,2.5 C 12.8333,3.16667 12.8333,3.16667 13.5,2.5 Z"/></g>
<g><path style="opacity:0.18" fill="#999893" d="M 15.5,2.5 C 16.8333,3.16667 16.8333,3.16667 15.5,2.5 Z"/></g>
<g><path style="opacity:0.18" fill="#999794" d="M 23.5,2.5 C 24.8333,3.16667 24.8333,3.16667 23.5,2.5 Z"/></g>
<g><path style="opacity:0.18" fill="#999893" d="M 34.5,2.5 C 34.8333,2.5 35.1667,2.5 35.5,2.5C 35.5,2.83333 35.5,3.16667 35.5,3.5C 35.1667,3.16667 34.8333,2.83333 34.5,2.5 Z"/></g>
<g><path style="opacity:0.365" fill="#94938e" d="M 38.5,2.5 C 37.8333,3.16667 37.8333,3.16667 38.5,2.5 Z"/></g>
<g><path style="opacity:0.09" fill="#9a9a97" d="M 487.5,2.5 C 488.833,3.16667 488.833,3.16667 487.5,2.5 Z"/></g>
<g><path style="opacity:0.09" fill="#9a9996" d="M 493.5,2.5 C 494.833,3.16667 494.833,3.16667 493.5,2.5 Z"/></g>
<g><path style="opacity:0.158" fill="#999794" d="M 507.5,-0.5 C 508.833,-0.5 510.167,-0.5 511.5,-0.5C 511.5,0.5 511.5,1.5 511.5,2.5C 509.738,3.26231 508.738,4.59565 508.5,6.5C 507.455,5.2053 506.455,3.87196 505.5,2.5C 505.863,1.81654 506.196,1.14987 506.5,0.5C 507.167,0.5 507.5,0.166667 507.5,-0.5 Z"/></g>
<g><path style="opacity:0.09" fill="#9b9a95" d="M -0.5,3.5 C 0.166667,3.5 0.5,3.83333 0.5,4.5C 0.166667,4.16667 -0.166667,3.83333 -0.5,3.5 Z"/></g>
<g><path style="opacity:0.158" fill="#9b9894" d="M 7.5,2.5 C 8.16667,3.16667 8.83333,3.83333 9.5,4.5C 8.25025,4.57735 7.41691,5.24402 7,6.5C 6.23502,4.93426 6.40168,3.60093 7.5,2.5 Z"/></g>
<g><path style="opacity:0.09" fill="#9b9994" d="M 10.5,3.5 C 11.8333,4.16667 11.8333,4.16667 10.5,3.5 Z"/></g>
<g><path style="opacity:0.09" fill="#999a94" d="M 33.5,4.5 C 32.8333,3.16667 32.8333,3.16667 33.5,4.5 Z"/></g>
<g><path style="opacity:0.09" fill="#9a9b95" d="M 35.5,3.5 C 36.1667,3.5 36.5,3.83333 36.5,4.5C 36.1667,4.16667 35.8333,3.83333 35.5,3.5 Z"/></g>
<g><path style="opacity:0.09" fill="#9a9a96" d="M 476.5,3.5 C 477.833,4.16667 477.833,4.16667 476.5,3.5 Z"/></g>
<g><path style="opacity:0.18" fill="#979793" d="M 503.5,4.5 C 502.833,3.16667 502.833,3.16667 503.5,4.5 Z"/></g>
<g><path style="opacity:0.18" fill="#979692" d="M 0.5,4.5 C 1.83333,5.16667 1.83333,5.16667 0.5,4.5 Z"/></g>
<g><path style="opacity:0.365" fill="#94928e" d="M 3.5,4.5 C 4.83333,5.16667 4.83333,5.16667 3.5,4.5 Z"/></g>
<g><path style="opacity:0.135" fill="#9b9894" d="M 9.5,4.5 C 9.83333,4.5 10.1667,4.5 10.5,4.5C 10.6309,5.37644 10.2975,6.04311 9.5,6.5C 8.53705,6.03017 8.53705,5.3635 9.5,4.5 Z"/></g>
<g><path style="opacity:0.09" fill="#9a9994" d="M 12.5,4.5 C 13.8333,5.16667 13.8333,5.16667 12.5,4.5 Z"/></g>
<g><path style="opacity:0.09" fill="#9a9996" d="M 29.5,4.5 C 30.8333,5.16667 30.8333,5.16667 29.5,4.5 Z"/></g>
<g><path style="opacity:0.18" fill="#989792" d="M 33.5,4.5 C 34.8333,5.16667 34.8333,5.16667 33.5,4.5 Z"/></g>
<g><path style="opacity:0.09" fill="#9b9a95" d="M 36.5,4.5 C 37.8333,5.16667 37.8333,5.16667 36.5,4.5 Z"/></g>
<g><path style="opacity:0.18" fill="#979693" d="M 471.5,4.5 C 472.833,5.16667 472.833,5.16667 471.5,4.5 Z"/></g>
<g><path style="opacity:0.18" fill="#979693" d="M 485.5,4.5 C 486.833,5.16667 486.833,5.16667 485.5,4.5 Z"/></g>
<g><path style="opacity:0.09" fill="#9a9a96" d="M 499.5,4.5 C 500.833,5.16667 500.833,5.16667 499.5,4.5 Z"/></g>
<g><path style="opacity:0.09" fill="#9a9895" d="M 503.5,4.5 C 504.239,4.36899 504.906,4.53566 505.5,5C 504.563,5.69169 503.897,5.52502 503.5,4.5 Z"/></g>
<g><path style="opacity:0.365" fill="#95948f" d="M 3.5,5.5 C 2.83333,6.16667 2.83333,6.16667 3.5,5.5 Z"/></g>
<g><path style="opacity:0.09" fill="#9a9a95" d="M 26.5,5.5 C 27.8333,6.16667 27.8333,6.16667 26.5,5.5 Z"/></g>
<g><path style="opacity:0.09" fill="#9b9994" d="M 50.5,5.5 C 51.8333,6.16667 51.8333,6.16667 50.5,5.5 Z"/></g>
<g><path style="opacity:0.275" fill="#959491" d="M 501.5,5.5 C 502.833,6.16667 502.833,6.16667 501.5,5.5 Z"/></g>
<g><path style="opacity:0.275" fill="#969794" d="M 511.5,5.5 C 511.5,5.83333 511.5,6.16667 511.5,6.5C 510.83,6.01865 510.83,5.68532 511.5,5.5 Z"/></g>
<g><path style="opacity:0.18" fill="#999893" d="M 4.5,6.5 C 5.83333,7.16667 5.83333,7.16667 4.5,6.5 Z"/></g>
<g><path style="opacity:0.18" fill="#999892" d="M 13.5,6.5 C 14.8333,7.16667 14.8333,7.16667 13.5,6.5 Z"/></g>
<g><path style="opacity:0.18" fill="#989793" d="M 23.5,6.5 C 24.8333,7.16667 24.8333,7.16667 23.5,6.5 Z"/></g>
<g><path style="opacity:0.09" fill="#9a9995" d="M 485.5,6.5 C 486.833,7.16667 486.833,7.16667 485.5,6.5 Z"/></g>
<g><path style="opacity:0.275" fill="#959491" d="M 503.5,6.5 C 504.833,7.16667 504.833,7.16667 503.5,6.5 Z"/></g>
<g><path style="opacity:0.135" fill="#989794" d="M 508.5,6.5 C 509.525,6.89657 509.692,7.56323 509,8.5C 508.536,7.90558 508.369,7.23891 508.5,6.5 Z"/></g>
<g><path style="opacity:0.275" fill="#989693" d="M -0.5,8.5 C -0.5,8.16667 -0.5,7.83333 -0.5,7.5C 0.376442,7.36912 1.04311,7.70245 1.5,8.5C 1.03017,9.46295 0.3635,9.46295 -0.5,8.5 Z"/></g>
<g><path style="opacity:0.18" fill="#999893" d="M 3.5,8.5 C 2.83333,7.16667 2.83333,7.16667 3.5,8.5 Z"/></g>
<g><path style="opacity:0.275" fill="#959490" d="M 506.5,7.5 C 507.833,8.16667 507.833,8.16667 506.5,7.5 Z"/></g>
<g><path style="opacity:0.09" fill="#999896" d="M 511.5,7.5 C 511.5,7.83333 511.5,8.16667 511.5,8.5C 510.83,8.01865 510.83,7.68532 511.5,7.5 Z"/></g>
<g><path style="opacity:0.09" fill="#9b9a95" d="M 3.5,8.5 C 4.83333,9.16667 4.83333,9.16667 3.5,8.5 Z"/></g>
<g><path style="opacity:0.18" fill="#989794" d="M 500.5,8.5 C 501.833,9.16667 501.833,9.16667 500.5,8.5 Z"/></g>
<g><path style="opacity:0.09" fill="#9b9a95" d="M 17.5,9.5 C 18.8333,10.1667 18.8333,10.1667 17.5,9.5 Z"/></g>
<g><path style="opacity:0.09" fill="#9b9a95" d="M 29.5,9.5 C 30.8333,10.1667 30.8333,10.1667 29.5,9.5 Z"/></g>
<g><path style="opacity:0.275" fill="#969691" d="M 507.5,9.5 C 508.833,10.1667 508.833,10.1667 507.5,9.5 Z"/></g>
<g><path style="opacity:0.09" fill="#999995" d="M 509.5,9.5 C 510.833,10.1667 510.833,10.1667 509.5,9.5 Z"/></g>
<g><path style="opacity:0.09" fill="#9a9a95" d="M 1.5,10.5 C 2.83333,11.1667 2.83333,11.1667 1.5,10.5 Z"/></g>
<g><path style="opacity:0.09" fill="#9b9a95" d="M 20.5,10.5 C 21.8333,11.1667 21.8333,11.1667 20.5,10.5 Z"/></g>
<g><path style="opacity:0.18" fill="#999893" d="M 41.5,10.5 C 42.8333,11.1667 42.8333,11.1667 41.5,10.5 Z"/></g>
<g><path style="opacity:0.18" fill="#989894" d="M 508.5,12.5 C 507.833,11.1667 507.833,11.1667 508.5,12.5 Z"/></g>
<g><path style="opacity:0.09" fill="#9a9b97" d="M 511.5,11.5 C 511.5,11.8333 511.5,12.1667 511.5,12.5C 510.83,12.0187 510.83,11.6853 511.5,11.5 Z"/></g>
<g><path style="opacity:0.09" fill="#9a9996" d="M 0.5,12.5 C 1.83333,13.1667 1.83333,13.1667 0.5,12.5 Z"/></g>
<g><path style="opacity:0.18" fill="#989793" d="M 496.5,12.5 C 497.833,13.1667 497.833,13.1667 496.5,12.5 Z"/></g>
<g><path style="opacity:0.18" fill="#989894" d="M 508.5,12.5 C 509.833,13.1667 509.833,13.1667 508.5,12.5 Z"/></g>
<g><path style="opacity:0.09" fill="#9a9b96" d="M 507.5,14.5 C 508.833,15.1667 508.833,15.1667 507.5,14.5 Z"/></g>
<g><path style="opacity:0.09" fill="#999996" d="M 509.5,14.5 C 510.833,15.1667 510.833,15.1667 509.5,14.5 Z"/></g>
<g><path style="opacity:0.09" fill="#9a9a96" d="M 503.5,15.5 C 504.833,16.1667 504.833,16.1667 503.5,15.5 Z"/></g>
<g><path style="opacity:0.09" fill="#9b9a95" d="M 11.5,19.5 C 12.8333,20.1667 12.8333,20.1667 11.5,19.5 Z"/></g>
<g><path style="opacity:0.09" fill="#9a9995" d="M 1.5,28.5 C 2.83333,29.1667 2.83333,29.1667 1.5,28.5 Z"/></g>
<g><path style="opacity:0.09" fill="#9b9996" d="M 2.5,69.5 C 3.83333,70.1667 3.83333,70.1667 2.5,69.5 Z"/></g>
<g><path style="opacity:1" fill="#090707" d="M 405.5,115.5 C 405.97,116.693 406.97,117.36 408.5,117.5C 412.798,118.297 417.132,118.63 421.5,118.5C 428.117,118.972 434.617,119.972 441,121.5C 441.333,131.833 441.667,142.167 442,152.5C 444.5,156.333 447.667,159.5 451.5,162C 459.936,166.218 468.602,169.885 477.5,173C 479.311,174.041 479.645,175.207 478.5,176.5C 477.883,176.611 477.383,176.944 477,177.5C 476.718,183.216 476.052,188.883 475,194.5C 458.874,260.005 443.208,325.672 428,391.5C 422.454,395.682 416.287,398.515 409.5,400C 402.833,403 396.167,406 389.5,409C 387.833,410.333 386.167,411.667 384.5,413C 376.684,415.126 369.018,417.793 361.5,421C 352.679,425.241 343.679,429.241 334.5,433C 327.407,437.787 319.74,441.121 311.5,443C 300.676,447.815 289.843,452.649 279,457.5C 272.768,462.449 265.768,465.782 258,467.5C 205.338,446.245 153.171,424.079 101.5,401C 96.6669,398.418 92.0002,395.585 87.5,392.5C 67.5401,324.332 48.0401,255.998 29,187.5C 28.2432,185.685 27.4098,184.019 26.5,182.5C 25.2475,180.661 25.2475,178.828 26.5,177C 36.0654,173.551 45.3988,169.551 54.5,165C 59.7134,161.454 63.88,156.954 67,151.5C 66.4932,141.604 66.6598,131.771 67.5,122C 118.219,117.723 167.552,107.056 215.5,90C 229.193,84.6541 242.526,78.4875 255.5,71.5C 288.564,86.6881 322.898,98.1881 358.5,106C 374.088,109.618 389.755,112.784 405.5,115.5 Z"/></g>
<g><path style="opacity:1" fill="#face11" d="M 266.5,87.5 C 266.511,89.0174 267.177,90.1841 268.5,91C 271.5,92.6667 274.5,94.3333 277.5,96C 276.552,96.4828 275.552,96.6495 274.5,96.5C 268.964,95.0661 263.63,93.0661 258.5,90.5C 254.693,91.9041 251.027,93.5708 247.5,95.5C 243.562,97.0349 239.562,98.3682 235.5,99.5C 232.456,97.9886 229.122,97.322 225.5,97.5C 235.999,93.0038 246.499,88.3372 257,83.5C 260.236,84.7431 263.403,86.0764 266.5,87.5 Z"/></g>
<g><path style="opacity:1" fill="#e48a00" d="M 274.5,96.5 C 289.796,103.155 305.463,108.821 321.5,113.5C 321.062,113.435 320.728,113.601 320.5,114C 323.063,114.763 323.063,115.263 320.5,115.5C 317.47,114.658 314.47,114.158 311.5,114C 313.167,115 314.833,116 316.5,117C 315.747,118.487 314.914,118.654 314,117.5C 312.513,118.253 312.346,119.086 313.5,120C 312.833,120.333 312.167,120.667 311.5,121C 313.862,123.871 314.862,127.204 314.5,131C 314.105,136.052 313.772,141.219 313.5,146.5C 311.585,146.216 309.919,146.549 308.5,147.5C 297.663,142.11 286.329,138.11 274.5,135.5C 264.521,134.704 254.521,134.371 244.5,134.5C 248.982,133.674 253.649,133.174 258.5,133C 257.167,132.667 255.833,132.333 254.5,132C 254.833,131.667 255.167,131.333 255.5,131C 253.667,128.893 252.501,126.393 252,123.5C 251.667,123.833 251.333,124.167 251,124.5C 249.561,122.725 248.561,120.725 248,118.5C 247.333,119.833 246.667,119.833 246,118.5C 245.118,115.211 244.452,111.877 244,108.5C 243,108.833 242,109.167 241,109.5C 240.118,105.973 240.618,105.307 242.5,107.5C 243.594,106.132 243.26,104.965 241.5,104C 242.138,102.293 242.138,100.46 241.5,98.5C 244.216,98.6138 246.216,97.6138 247.5,95.5C 251.027,93.5708 254.693,91.9041 258.5,90.5C 263.63,93.0661 268.964,95.0661 274.5,96.5 Z"/></g>
<g><path style="opacity:1" fill="#ed9100" d="M 247.5,95.5 C 246.216,97.6138 244.216,98.6138 241.5,98.5C 242.138,100.46 242.138,102.293 241.5,104C 243.26,104.965 243.594,106.132 242.5,107.5C 240.618,105.307 240.118,105.973 241,109.5C 242,109.167 243,108.833 244,108.5C 244.452,111.877 245.118,115.211 246,118.5C 246.667,119.833 247.333,119.833 248,118.5C 248.561,120.725 249.561,122.725 251,124.5C 251.333,124.167 251.667,123.833 252,123.5C 252.501,126.393 253.667,128.893 255.5,131C 255.167,131.333 254.833,131.667 254.5,132C 255.833,132.333 257.167,132.667 258.5,133C 253.649,133.174 248.982,133.674 244.5,134.5C 218.566,136.885 196.4,147.218 178,165.5C 176.878,167.42 176.044,169.42 175.5,171.5C 175.5,171.833 175.5,172.167 175.5,172.5C 172.833,172.5 170.167,172.5 167.5,172.5C 160.285,171.85 152.951,171.017 145.5,170C 148.5,169.667 151.5,169.333 154.5,169C 152.392,168.64 150.392,167.973 148.5,167C 149.981,166.02 151.315,164.853 152.5,163.5C 151.833,163.167 151.167,162.833 150.5,162.5C 152.078,161.702 153.744,161.202 155.5,161C 154.552,160.517 153.552,160.351 152.5,160.5C 152.137,158.089 153.137,156.589 155.5,156C 154.449,154.615 153.116,153.615 151.5,153C 152.328,152.085 153.328,151.419 154.5,151C 153.833,150.667 153.167,150.333 152.5,150C 154.283,148.933 154.783,147.433 154,145.5C 153.275,147.158 152.108,147.658 150.5,147C 151.167,146.333 151.833,145.667 152.5,145C 148.808,145.004 145.475,144.004 142.5,142C 143.833,141.667 145.167,141.333 146.5,141C 145.135,139.318 143.635,139.151 142,140.5C 141.683,138.699 141.016,138.366 140,139.5C 138.349,137.598 138.016,135.598 139,133.5C 138.086,134.654 137.253,134.487 136.5,133C 136.833,132.667 137.167,132.333 137.5,132C 134.937,130.921 132.271,130.421 129.5,130.5C 149.878,126.34 170.211,121.506 190.5,116C 205.838,111.255 220.838,105.755 235.5,99.5C 239.562,98.3682 243.562,97.0349 247.5,95.5 Z"/></g>
<g><path style="opacity:1" fill="#fbb809" d="M 266.5,87.5 C 291.65,98.3279 317.65,106.995 344.5,113.5C 344.281,114.675 344.614,115.675 345.5,116.5C 348.554,117.347 351.554,118.347 354.5,119.5C 353.675,120.386 352.675,120.719 351.5,120.5C 347.476,119.962 343.476,119.295 339.5,118.5C 333.603,116.856 327.603,115.19 321.5,113.5C 305.463,108.821 289.796,103.155 274.5,96.5C 275.552,96.6495 276.552,96.4828 277.5,96C 274.5,94.3333 271.5,92.6667 268.5,91C 267.177,90.1841 266.511,89.0174 266.5,87.5 Z"/></g>
<g><path style="opacity:1" fill="#d17a00" d="M 321.5,113.5 C 327.603,115.19 333.603,116.856 339.5,118.5C 337.897,118.312 336.563,118.812 335.5,120C 337.392,120.973 339.392,121.64 341.5,122C 339.945,123.646 338.279,123.979 336.5,123C 338.125,123.853 338.458,124.853 337.5,126C 338.047,128.367 339.047,130.533 340.5,132.5C 339.282,133.803 339.615,134.803 341.5,135.5C 339.575,138.697 339.575,141.697 341.5,144.5C 341.023,145.478 340.357,146.311 339.5,147C 340.833,148.667 340.833,150.333 339.5,152C 340.167,152.667 340.833,153.333 341.5,154C 341.335,155.117 341.002,156.284 340.5,157.5C 341.383,158.548 342.05,159.715 342.5,161C 341.351,162.73 341.351,164.396 342.5,166C 339.154,168.74 335.487,169.24 331.5,167.5C 325.753,161.415 319.419,156.082 312.5,151.5C 311.63,149.726 310.297,148.393 308.5,147.5C 309.919,146.549 311.585,146.216 313.5,146.5C 313.772,141.219 314.105,136.052 314.5,131C 314.862,127.204 313.862,123.871 311.5,121C 312.167,120.667 312.833,120.333 313.5,120C 312.346,119.086 312.513,118.253 314,117.5C 314.914,118.654 315.747,118.487 316.5,117C 314.833,116 313.167,115 311.5,114C 314.47,114.158 317.47,114.658 320.5,115.5C 323.063,115.263 323.063,114.763 320.5,114C 320.728,113.601 321.062,113.435 321.5,113.5 Z"/></g>
<g><path style="opacity:1" fill="#fae42d" d="M 225.5,97.5 C 229.122,97.322 232.456,97.9886 235.5,99.5C 220.838,105.755 205.838,111.255 190.5,116C 170.211,121.506 149.878,126.34 129.5,130.5C 124.5,131.167 119.5,131.833 114.5,132.5C 115.335,131.057 116.668,130.057 118.5,129.5C 117.359,128.575 117.359,127.741 118.5,127C 121.522,126.902 124.189,126.068 126.5,124.5C 160.122,117.844 193.122,108.844 225.5,97.5 Z"/></g>
<g><path style="opacity:1" fill="#4d494a" d="M 405.5,115.5 C 411.025,116.141 416.358,117.141 421.5,118.5C 417.132,118.63 412.798,118.297 408.5,117.5C 406.97,117.36 405.97,116.693 405.5,115.5 Z"/></g>
<g><path style="opacity:1" fill="#f6a104" d="M 344.5,113.5 C 358.193,116.372 371.86,119.372 385.5,122.5C 385.082,123.222 384.416,123.722 383.5,124C 386.785,124.759 389.785,126.092 392.5,128C 391.552,128.483 390.552,128.649 389.5,128.5C 382.799,127.716 376.132,126.716 369.5,125.5C 363.557,123.621 357.557,121.954 351.5,120.5C 352.675,120.719 353.675,120.386 354.5,119.5C 351.554,118.347 348.554,117.347 345.5,116.5C 344.614,115.675 344.281,114.675 344.5,113.5 Z"/></g>
<g><path style="opacity:1" fill="#c77201" d="M 339.5,118.5 C 343.476,119.295 347.476,119.962 351.5,120.5C 357.557,121.954 363.557,123.621 369.5,125.5C 368.761,125.369 368.094,125.536 367.5,126C 371.185,126.914 370.852,127.581 366.5,128C 369.059,131.075 369.059,134.075 366.5,137C 367.022,137.561 367.355,138.228 367.5,139C 363.722,148.227 363.722,157.393 367.5,166.5C 366.61,167.955 366.61,169.289 367.5,170.5C 371.313,171.167 374.979,171.834 378.5,172.5C 363.833,172.5 349.167,172.5 334.5,172.5C 333.752,170.668 332.752,169.001 331.5,167.5C 335.487,169.24 339.154,168.74 342.5,166C 341.351,164.396 341.351,162.73 342.5,161C 342.05,159.715 341.383,158.548 340.5,157.5C 341.002,156.284 341.335,155.117 341.5,154C 340.833,153.333 340.167,152.667 339.5,152C 340.833,150.333 340.833,148.667 339.5,147C 340.357,146.311 341.023,145.478 341.5,144.5C 339.575,141.697 339.575,138.697 341.5,135.5C 339.615,134.803 339.282,133.803 340.5,132.5C 339.047,130.533 338.047,128.367 337.5,126C 338.458,124.853 338.125,123.853 336.5,123C 338.279,123.979 339.945,123.646 341.5,122C 339.392,121.64 337.392,120.973 335.5,120C 336.563,118.812 337.897,118.312 339.5,118.5 Z"/></g>
<g><path style="opacity:1" fill="#e08602" d="M 385.5,122.5 C 391.418,123.931 397.418,124.931 403.5,125.5C 402.402,126.397 402.402,127.23 403.5,128C 409.01,128.229 414.01,129.729 418.5,132.5C 418.043,133.298 417.376,133.631 416.5,133.5C 411.126,133.113 405.793,132.446 400.5,131.5C 396.809,130.607 393.142,129.607 389.5,128.5C 390.552,128.649 391.552,128.483 392.5,128C 389.785,126.092 386.785,124.759 383.5,124C 384.416,123.722 385.082,123.222 385.5,122.5 Z"/></g>
<g><path style="opacity:1" fill="#aa6903" d="M 103.5,128.5 C 98.3303,129.698 92.997,130.698 87.5,131.5C 85.8333,131.5 84.1667,131.5 82.5,131.5C 89.2508,129.678 96.2508,128.678 103.5,128.5 Z"/></g>
<g><path style="opacity:1" fill="#ba6700" d="M 369.5,125.5 C 376.132,126.716 382.799,127.716 389.5,128.5C 393.142,129.607 396.809,130.607 400.5,131.5C 400.167,131.5 399.833,131.5 399.5,131.5C 397.132,132.014 395.132,133.18 393.5,135C 393.957,135.414 394.291,135.914 394.5,136.5C 389.677,145.879 389.677,155.212 394.5,164.5C 393.395,166.967 393.395,169.134 394.5,171C 392.98,173.334 391.98,175.834 391.5,178.5C 391.975,175.918 391.308,173.918 389.5,172.5C 385.833,172.5 382.167,172.5 378.5,172.5C 374.979,171.834 371.313,171.167 367.5,170.5C 366.61,169.289 366.61,167.955 367.5,166.5C 363.722,157.393 363.722,148.227 367.5,139C 367.355,138.228 367.022,137.561 366.5,137C 369.059,134.075 369.059,131.075 366.5,128C 370.852,127.581 371.185,126.914 367.5,126C 368.094,125.536 368.761,125.369 369.5,125.5 Z"/></g>
<g><path style="opacity:1" fill="#cd7201" d="M 403.5,125.5 C 411.765,127.205 420.098,128.538 428.5,129.5C 429.144,136.124 428.31,142.457 426,148.5C 425.501,143.845 425.334,139.179 425.5,134.5C 422.287,134.81 419.287,134.477 416.5,133.5C 417.376,133.631 418.043,133.298 418.5,132.5C 414.01,129.729 409.01,128.229 403.5,128C 402.402,127.23 402.402,126.397 403.5,125.5 Z"/></g>
<g><path style="opacity:1" fill="#b36200" d="M 399.5,131.5 C 400.008,133.233 400.841,133.566 402,132.5C 402.5,133.5 403,134.5 403.5,135.5C 403.243,140.288 402.909,145.121 402.5,150C 403.966,154.041 405.133,157.875 406,161.5C 406.2,165.753 406.7,169.92 407.5,174C 407.693,176.746 407.359,179.746 406.5,183C 408.832,191.324 411.166,199.658 413.5,208C 413.043,208.414 412.709,208.914 412.5,209.5C 414.293,214.041 414.959,218.541 414.5,223C 412.887,226.896 411.554,230.896 410.5,235C 411.257,236.512 412.257,237.846 413.5,239C 414.01,243.411 414.01,248.078 413.5,253C 414.167,253.333 414.833,253.667 415.5,254C 414.233,255.796 414.233,257.629 415.5,259.5C 415.023,260.478 414.357,261.311 413.5,262C 413.833,262.333 414.167,262.667 414.5,263C 413.248,266.383 411.914,269.716 410.5,273C 411.634,274.016 411.301,274.683 409.5,275C 409.833,275.333 410.167,275.667 410.5,276C 407.305,280.066 404.638,284.4 402.5,289C 404.991,289.626 404.991,290.459 402.5,291.5C 402.977,292.478 403.643,293.311 404.5,294C 401.018,300.788 397.352,307.455 393.5,314C 393.833,314.333 394.167,314.667 394.5,315C 394.068,321.989 392.735,328.823 390.5,335.5C 393.779,343.937 391.613,350.604 384,355.5C 383.691,356.766 383.191,357.933 382.5,359C 384.929,359.451 385.096,360.285 383,361.5C 382.667,361.167 382.333,360.833 382,360.5C 380.887,361.76 380.72,362.927 381.5,364C 378.551,364.39 376.384,365.89 375,368.5C 374.667,368.167 374.333,367.833 374,367.5C 371.452,369.657 369.619,371.824 368.5,374C 368.894,376.251 369.394,378.751 370,381.5C 375.451,380.724 380.617,380.724 385.5,381.5C 384.71,382.401 383.71,383.068 382.5,383.5C 370.269,388.783 357.936,393.783 345.5,398.5C 342.993,398.34 340.493,398.34 338,398.5C 335.191,398.752 333.191,400.085 332,402.5C 330.58,400.578 328.747,399.245 326.5,398.5C 325.167,397.5 325.167,396.5 326.5,395.5C 323.536,392.05 323.869,388.55 327.5,385C 326.786,382.323 326.453,379.489 326.5,376.5C 327.752,374.999 328.752,373.332 329.5,371.5C 328.167,370.5 328.167,369.5 329.5,368.5C 328.975,367.808 328.308,367.308 327.5,367C 330.306,364.194 333.14,361.36 336,358.5C 336.492,357.451 336.326,356.451 335.5,355.5C 336.63,354.378 337.297,353.044 337.5,351.5C 346.511,341.821 355.178,331.821 363.5,321.5C 371.897,310.71 378.231,298.71 382.5,285.5C 390.317,267.404 393.15,248.404 391,228.5C 389.484,238.246 387.651,247.913 385.5,257.5C 384.833,256.167 384.167,254.833 383.5,253.5C 386.076,237.894 388.076,222.227 389.5,206.5C 390.268,205.737 390.768,204.737 391,203.5C 391.5,195.173 391.666,186.84 391.5,178.5C 391.98,175.834 392.98,173.334 394.5,171C 393.395,169.134 393.395,166.967 394.5,164.5C 389.677,155.212 389.677,145.879 394.5,136.5C 394.291,135.914 393.957,135.414 393.5,135C 395.132,133.18 397.132,132.014 399.5,131.5 Z"/></g>
<g><path style="opacity:1" fill="#f9b106" d="M 126.5,124.5 C 124.189,126.068 121.522,126.902 118.5,127C 117.359,127.741 117.359,128.575 118.5,129.5C 116.668,130.057 115.335,131.057 114.5,132.5C 104.366,134.621 94.0329,135.288 83.5,134.5C 85.1836,133.85 86.5169,132.85 87.5,131.5C 92.997,130.698 98.3303,129.698 103.5,128.5C 111.077,126.848 118.744,125.515 126.5,124.5 Z"/></g>
<g><path style="opacity:1" fill="#e28900" d="M 129.5,130.5 C 132.271,130.421 134.937,130.921 137.5,132C 137.167,132.333 136.833,132.667 136.5,133C 137.253,134.487 138.086,134.654 139,133.5C 138.016,135.598 138.349,137.598 140,139.5C 141.016,138.366 141.683,138.699 142,140.5C 143.635,139.151 145.135,139.318 146.5,141C 145.167,141.333 143.833,141.667 142.5,142C 145.475,144.004 148.808,145.004 152.5,145C 151.833,145.667 151.167,146.333 150.5,147C 152.108,147.658 153.275,147.158 154,145.5C 154.783,147.433 154.283,148.933 152.5,150C 153.167,150.333 153.833,150.667 154.5,151C 153.328,151.419 152.328,152.085 151.5,153C 153.116,153.615 154.449,154.615 155.5,156C 153.137,156.589 152.137,158.089 152.5,160.5C 153.552,160.351 154.552,160.517 155.5,161C 153.744,161.202 152.078,161.702 150.5,162.5C 151.167,162.833 151.833,163.167 152.5,163.5C 151.315,164.853 149.981,166.02 148.5,167C 150.392,167.973 152.392,168.64 154.5,169C 151.5,169.333 148.5,169.667 145.5,170C 152.951,171.017 160.285,171.85 167.5,172.5C 152.5,172.5 137.5,172.5 122.5,172.5C 122.5,183.5 122.5,194.5 122.5,205.5C 122.5,206.167 122.5,206.833 122.5,207.5C 122.77,222.658 124.436,237.658 127.5,252.5C 126.778,252.082 126.278,251.416 126,250.5C 125.348,269.868 130.015,287.868 140,304.5C 146.187,315.359 153.187,325.693 161,335.5C 179.4,355.42 200.233,372.087 223.5,385.5C 222.883,385.611 222.383,385.944 222,386.5C 214.857,382.07 207.69,377.737 200.5,373.5C 198.284,372.184 196.284,370.517 194.5,368.5C 193.914,368.709 193.414,369.043 193,369.5C 190.694,367.194 188.36,364.86 186,362.5C 185.667,362.833 185.333,363.167 185,363.5C 183.681,361.513 181.848,360.346 179.5,360C 180.654,359.086 180.487,358.253 179,357.5C 178.667,358.167 178.333,358.833 178,359.5C 175.877,358.117 174.877,356.45 175,354.5C 174.667,354.833 174.333,355.167 174,355.5C 171.821,353.652 169.987,351.485 168.5,349C 168.833,348.667 169.167,348.333 169.5,348C 168.624,346.414 167.624,344.914 166.5,343.5C 165.349,342.269 164.183,342.269 163,343.5C 161.926,342.382 160.76,341.382 159.5,340.5C 159.709,339.914 160.043,339.414 160.5,339C 157.736,338.468 155.07,337.634 152.5,336.5C 149.65,333.818 146.984,330.984 144.5,328C 145.654,327.086 145.487,326.253 144,325.5C 143.667,325.833 143.333,326.167 143,326.5C 142.316,325.216 142.483,324.049 143.5,323C 143,322.5 142.5,322 142,321.5C 141.333,326.833 140.667,326.833 140,321.5C 139.586,321.957 139.086,322.291 138.5,322.5C 137.094,321.049 135.594,319.716 134,318.5C 133.586,318.957 133.086,319.291 132.5,319.5C 128.845,316.011 125.345,312.345 122,308.5C 121.667,308.833 121.333,309.167 121,309.5C 119.352,308.283 117.519,307.45 115.5,307C 117.901,306.195 117.734,305.362 115,304.5C 114.007,301.063 111.84,298.563 108.5,297C 108.833,296.667 109.167,296.333 109.5,296C 108.167,294.667 106.833,293.333 105.5,292C 106.167,291.667 106.833,291.333 107.5,291C 105.606,289.899 104.939,288.566 105.5,287C 104.08,285.47 103.08,283.637 102.5,281.5C 99.6365,278.829 97.3031,276.329 95.5,274C 97.3939,272.899 98.0606,271.566 97.5,270C 99.3937,268.921 99.727,267.587 98.5,266C 99.2643,262.709 100.431,259.543 102,256.5C 102.333,256.833 102.667,257.167 103,257.5C 105.178,256.107 106.178,254.44 106,252.5C 106.333,252.833 106.667,253.167 107,253.5C 107.781,252.056 107.614,250.723 106.5,249.5C 105.808,250.025 105.308,250.692 105,251.5C 104.727,249.899 104.227,248.399 103.5,247C 107.19,246.576 107.357,245.742 104,244.5C 103.667,244.833 103.333,245.167 103,245.5C 102.138,243.913 101.471,242.246 101,240.5C 99.207,241.381 98.5403,240.714 99,238.5C 99.6667,237.167 100.333,237.167 101,238.5C 101.667,237.5 101.667,236.5 101,235.5C 100.259,236.641 99.4255,236.641 98.5,235.5C 95.2295,232.404 92.5628,228.904 90.5,225C 90.8333,224.667 91.1667,224.333 91.5,224C 89.3921,223.64 87.3921,222.973 85.5,222C 85.8333,221.667 86.1667,221.333 86.5,221C 83.0327,219.141 82.0327,216.808 83.5,214C 82.8333,213.333 82.1667,212.667 81.5,212C 82.3485,210.23 84.0152,208.563 86.5,207C 82.8149,206.086 83.1482,205.419 87.5,205C 86.3281,203.132 86.4947,201.298 88,199.5C 88.3333,200.5 88.6667,201.5 89,202.5C 89.5182,198.906 90.1848,195.239 91,191.5C 92.353,190.315 93.5197,188.981 94.5,187.5C 91.9244,186.117 92.2577,185.283 95.5,185C 92.8333,184.333 92.8333,183.667 95.5,183C 95.0426,182.586 94.7093,182.086 94.5,181.5C 96.2786,179.807 96.7786,177.807 96,175.5C 94.9015,178.044 93.7348,178.044 92.5,175.5C 93.6405,174.575 93.6405,173.741 92.5,173C 91.1667,172.667 89.8333,172.333 88.5,172C 90.6048,170.665 91.2714,168.998 90.5,167C 91.6776,166.033 93.011,165.533 94.5,165.5C 93.2519,163.541 91.5852,162.041 89.5,161C 90.6537,160.086 90.487,159.253 89,158.5C 88.3333,159.833 87.6667,159.833 87,158.5C 86.3333,161.167 85.6667,161.167 85,158.5C 84.0569,161.109 82.3903,163.109 80,164.5C 79.342,166.108 79.842,167.275 81.5,168C 79.6992,168.317 79.3659,168.984 80.5,170C 79.1011,170.595 77.7678,170.428 76.5,169.5C 75.787,171.435 74.787,171.768 73.5,170.5C 76.714,167.245 79.0473,163.412 80.5,159C 78.5048,160.815 75.8382,161.981 72.5,162.5C 79.0421,153.248 81.3755,142.915 79.5,131.5C 80.5,131.5 81.5,131.5 82.5,131.5C 84.1667,131.5 85.8333,131.5 87.5,131.5C 86.5169,132.85 85.1836,133.85 83.5,134.5C 94.0329,135.288 104.366,134.621 114.5,132.5C 119.5,131.833 124.5,131.167 129.5,130.5 Z"/></g>
<g><path style="opacity:1" fill="#aa5b00" d="M 428.5,129.5 C 429.328,135.319 429.828,141.319 430,147.5C 431.319,151.472 433.153,155.139 435.5,158.5C 434.24,158.799 433.073,158.799 432,158.5C 431.667,156.833 431.333,155.167 431,153.5C 429.605,154.815 428.605,154.481 428,152.5C 427.333,153.833 427.333,155.167 428,156.5C 435.21,168.883 445.71,176.883 459.5,180.5C 444.76,242.938 429.26,305.605 413,368.5C 404.191,373.487 395.024,377.82 385.5,381.5C 380.617,380.724 375.451,380.724 370,381.5C 369.394,378.751 368.894,376.251 368.5,374C 369.619,371.824 371.452,369.657 374,367.5C 374.333,367.833 374.667,368.167 375,368.5C 376.384,365.89 378.551,364.39 381.5,364C 380.72,362.927 380.887,361.76 382,360.5C 382.333,360.833 382.667,361.167 383,361.5C 385.096,360.285 384.929,359.451 382.5,359C 383.191,357.933 383.691,356.766 384,355.5C 391.613,350.604 393.779,343.937 390.5,335.5C 392.735,328.823 394.068,321.989 394.5,315C 394.167,314.667 393.833,314.333 393.5,314C 397.352,307.455 401.018,300.788 404.5,294C 403.643,293.311 402.977,292.478 402.5,291.5C 404.991,290.459 404.991,289.626 402.5,289C 404.638,284.4 407.305,280.066 410.5,276C 410.167,275.667 409.833,275.333 409.5,275C 411.301,274.683 411.634,274.016 410.5,273C 411.914,269.716 413.248,266.383 414.5,263C 414.167,262.667 413.833,262.333 413.5,262C 414.357,261.311 415.023,260.478 415.5,259.5C 414.233,257.629 414.233,255.796 415.5,254C 414.833,253.667 414.167,253.333 413.5,253C 414.01,248.078 414.01,243.411 413.5,239C 412.257,237.846 411.257,236.512 410.5,235C 411.554,230.896 412.887,226.896 414.5,223C 414.959,218.541 414.293,214.041 412.5,209.5C 412.709,208.914 413.043,208.414 413.5,208C 411.166,199.658 408.832,191.324 406.5,183C 407.359,179.746 407.693,176.746 407.5,174C 406.7,169.92 406.2,165.753 406,161.5C 405.133,157.875 403.966,154.041 402.5,150C 402.909,145.121 403.243,140.288 403.5,135.5C 403,134.5 402.5,133.5 402,132.5C 400.841,133.566 400.008,133.233 399.5,131.5C 399.833,131.5 400.167,131.5 400.5,131.5C 405.793,132.446 411.126,133.113 416.5,133.5C 419.287,134.477 422.287,134.81 425.5,134.5C 425.334,139.179 425.501,143.845 426,148.5C 428.31,142.457 429.144,136.124 428.5,129.5 Z"/></g>
<g><path style="opacity:1" fill="#060303" d="M 265.5,136.5 C 281.907,138.857 297.574,143.857 312.5,151.5C 319.419,156.082 325.753,161.415 331.5,167.5C 332.752,169.001 333.752,170.668 334.5,172.5C 332.847,172.66 331.514,173.326 330.5,174.5C 323.86,168.511 316.527,163.511 308.5,159.5C 301.782,156.307 294.782,153.973 287.5,152.5C 285.039,151.469 282.373,150.802 279.5,150.5C 275.188,149.752 270.854,149.086 266.5,148.5C 241.826,145.552 218.826,150.219 197.5,162.5C 192.219,165.78 187.219,169.447 182.5,173.5C 180.283,172.631 177.95,172.298 175.5,172.5C 175.5,172.167 175.5,171.833 175.5,171.5C 199.679,145.429 229.679,133.763 265.5,136.5 Z"/></g>
<g><path style="opacity:1" fill="#994f09" d="M 274.5,135.5 C 286.329,138.11 297.663,142.11 308.5,147.5C 310.297,148.393 311.63,149.726 312.5,151.5C 297.574,143.857 281.907,138.857 265.5,136.5C 268.713,136.81 271.713,136.477 274.5,135.5 Z"/></g>
<g><path style="opacity:1" fill="#bd630b" d="M 244.5,134.5 C 254.521,134.371 264.521,134.704 274.5,135.5C 271.713,136.477 268.713,136.81 265.5,136.5C 229.679,133.763 199.679,145.429 175.5,171.5C 176.044,169.42 176.878,167.42 178,165.5C 196.4,147.218 218.566,136.885 244.5,134.5 Z"/></g>
<g><path style="opacity:1" fill="#516068" d="M 266.5,148.5 C 267.987,149.804 269.654,150.97 271.5,152C 269.697,153.262 268.364,154.929 267.5,157C 267.833,157.333 268.167,157.667 268.5,158C 261.499,162.053 254.332,165.886 247,169.5C 246.667,169.167 246.333,168.833 246,168.5C 239.556,171.656 232.89,172.989 226,172.5C 225.333,169.833 224.667,169.833 224,172.5C 220.386,172.64 216.719,172.307 213,171.5C 211.27,173.602 209.437,173.435 207.5,171C 205.899,170.727 204.399,170.227 203,169.5C 202.667,169.833 202.333,170.167 202,170.5C 200.5,168.333 198.667,166.5 196.5,165C 197.252,164.329 197.586,163.496 197.5,162.5C 218.826,150.219 241.826,145.552 266.5,148.5 Z"/></g>
<g><path style="opacity:1" fill="#48555e" d="M 266.5,148.5 C 270.854,149.086 275.188,149.752 279.5,150.5C 281.677,151.365 282.677,153.032 282.5,155.5C 280.896,160.769 277.563,164.436 272.5,166.5C 271.96,167.748 271.293,168.915 270.5,170C 265.793,173.354 260.793,176.187 255.5,178.5C 253.655,177.062 252.489,177.396 252,179.5C 251.667,179.167 251.333,178.833 251,178.5C 247.65,179.73 244.316,181.063 241,182.5C 224.496,183.507 209.163,183.507 195,182.5C 192.443,182.581 190.61,183.747 189.5,186C 190.554,188.382 191.221,190.882 191.5,193.5C 187.989,187.139 184.989,180.472 182.5,173.5C 187.219,169.447 192.219,165.78 197.5,162.5C 197.586,163.496 197.252,164.329 196.5,165C 198.667,166.5 200.5,168.333 202,170.5C 202.333,170.167 202.667,169.833 203,169.5C 204.399,170.227 205.899,170.727 207.5,171C 209.437,173.435 211.27,173.602 213,171.5C 216.719,172.307 220.386,172.64 224,172.5C 224.667,169.833 225.333,169.833 226,172.5C 232.89,172.989 239.556,171.656 246,168.5C 246.333,168.833 246.667,169.167 247,169.5C 254.332,165.886 261.499,162.053 268.5,158C 268.167,157.667 267.833,157.333 267.5,157C 268.364,154.929 269.697,153.262 271.5,152C 269.654,150.97 267.987,149.804 266.5,148.5 Z"/></g>
<g><path style="opacity:1" fill="#de8500" d="M 200.5,373.5 C 199.098,373.736 197.598,374.07 196,374.5C 194.739,374.241 193.739,373.574 193,372.5C 190.724,372.316 188.39,372.316 186,372.5C 184.411,371.467 182.411,370.134 180,368.5C 178.721,370.937 177.221,371.437 175.5,370C 175.833,369.667 176.167,369.333 176.5,369C 174.311,366.056 171.811,364.223 169,363.5C 168.517,362.552 168.351,361.552 168.5,360.5C 167.448,360.649 166.448,360.483 165.5,360C 166.668,357.837 167.335,355.837 167.5,354C 165.667,353.5 164.5,352.333 164,350.5C 163.667,351.167 163.333,351.833 163,352.5C 162.51,351.207 162.343,349.873 162.5,348.5C 159.52,348.759 157.687,347.426 157,344.5C 156,345.167 155,345.833 154,346.5C 151.275,342.832 148.775,342.832 146.5,346.5C 142.681,347.411 138.681,347.411 134.5,346.5C 134.649,345.448 134.483,344.448 134,343.5C 132.984,344.634 132.317,344.301 132,342.5C 131.667,342.833 131.333,343.167 131,343.5C 129.088,342.308 127.088,341.308 125,340.5C 123.192,340.888 121.525,340.888 120,340.5C 119.535,339.069 118.701,337.903 117.5,337C 118.451,336.282 118.617,335.449 118,334.5C 116.334,335.34 116.167,334.84 117.5,333C 116.322,332.033 114.989,331.533 113.5,331.5C 113.5,329.833 113.5,328.167 113.5,326.5C 112.914,326.291 112.414,325.957 112,325.5C 111.781,326.938 111.281,328.271 110.5,329.5C 110.167,329.333 109.833,329.167 109.5,329C 109.243,327.629 109.577,326.129 110.5,324.5C 110.182,323.353 109.516,322.519 108.5,322C 110.595,321.444 110.762,320.944 109,320.5C 108.055,320.905 107.388,321.572 107,322.5C 104.303,317.259 105.47,316.259 110.5,319.5C 110.906,318.443 110.906,317.109 110.5,315.5C 109.178,315.33 108.011,315.663 107,316.5C 106.529,314.754 105.862,313.087 105,311.5C 104.085,312.328 103.419,313.328 103,314.5C 101.983,311.972 100.816,311.972 99.5,314.5C 98.0452,312.056 96.3785,311.556 94.5,313C 94.8333,313.333 95.1667,313.667 95.5,314C 93.8333,314.333 92.1667,314.667 90.5,315C 90.9774,319.806 90.9774,324.806 90.5,330C 91.1012,334.869 92.4346,339.536 94.5,344C 94.2155,345.956 94.2155,348.123 94.5,350.5C 78.8406,295.867 63.174,241.201 47.5,186.5C 57.0966,182.701 65.7632,177.367 73.5,170.5C 74.787,171.768 75.787,171.435 76.5,169.5C 77.7678,170.428 79.1011,170.595 80.5,170C 79.3659,168.984 79.6992,168.317 81.5,168C 79.842,167.275 79.342,166.108 80,164.5C 82.3903,163.109 84.0569,161.109 85,158.5C 85.6667,161.167 86.3333,161.167 87,158.5C 87.6667,159.833 88.3333,159.833 89,158.5C 90.487,159.253 90.6537,160.086 89.5,161C 91.5852,162.041 93.2519,163.541 94.5,165.5C 93.011,165.533 91.6776,166.033 90.5,167C 91.2714,168.998 90.6048,170.665 88.5,172C 89.8333,172.333 91.1667,172.667 92.5,173C 93.6405,173.741 93.6405,174.575 92.5,175.5C 93.7348,178.044 94.9015,178.044 96,175.5C 96.7786,177.807 96.2786,179.807 94.5,181.5C 94.7093,182.086 95.0426,182.586 95.5,183C 92.8333,183.667 92.8333,184.333 95.5,185C 92.2577,185.283 91.9244,186.117 94.5,187.5C 93.5197,188.981 92.353,190.315 91,191.5C 90.1848,195.239 89.5182,198.906 89,202.5C 88.6667,201.5 88.3333,200.5 88,199.5C 86.4947,201.298 86.3281,203.132 87.5,205C 83.1482,205.419 82.8149,206.086 86.5,207C 84.0152,208.563 82.3485,210.23 81.5,212C 82.1667,212.667 82.8333,213.333 83.5,214C 82.0327,216.808 83.0327,219.141 86.5,221C 86.1667,221.333 85.8333,221.667 85.5,222C 87.3921,222.973 89.3921,223.64 91.5,224C 91.1667,224.333 90.8333,224.667 90.5,225C 92.5628,228.904 95.2295,232.404 98.5,235.5C 99.4255,236.641 100.259,236.641 101,235.5C 101.667,236.5 101.667,237.5 101,238.5C 100.333,237.167 99.6667,237.167 99,238.5C 98.5403,240.714 99.207,241.381 101,240.5C 101.471,242.246 102.138,243.913 103,245.5C 103.333,245.167 103.667,244.833 104,244.5C 107.357,245.742 107.19,246.576 103.5,247C 104.227,248.399 104.727,249.899 105,251.5C 105.308,250.692 105.808,250.025 106.5,249.5C 107.614,250.723 107.781,252.056 107,253.5C 106.667,253.167 106.333,252.833 106,252.5C 106.178,254.44 105.178,256.107 103,257.5C 102.667,257.167 102.333,256.833 102,256.5C 100.431,259.543 99.2643,262.709 98.5,266C 99.727,267.587 99.3937,268.921 97.5,270C 98.0606,271.566 97.3939,272.899 95.5,274C 97.3031,276.329 99.6365,278.829 102.5,281.5C 103.08,283.637 104.08,285.47 105.5,287C 104.939,288.566 105.606,289.899 107.5,291C 106.833,291.333 106.167,291.667 105.5,292C 106.833,293.333 108.167,294.667 109.5,296C 109.167,296.333 108.833,296.667 108.5,297C 111.84,298.563 114.007,301.063 115,304.5C 117.734,305.362 117.901,306.195 115.5,307C 117.519,307.45 119.352,308.283 121,309.5C 121.333,309.167 121.667,308.833 122,308.5C 125.345,312.345 128.845,316.011 132.5,319.5C 133.086,319.291 133.586,318.957 134,318.5C 135.594,319.716 137.094,321.049 138.5,322.5C 139.086,322.291 139.586,321.957 140,321.5C 140.667,326.833 141.333,326.833 142,321.5C 142.5,322 143,322.5 143.5,323C 142.483,324.049 142.316,325.216 143,326.5C 143.333,326.167 143.667,325.833 144,325.5C 145.487,326.253 145.654,327.086 144.5,328C 146.984,330.984 149.65,333.818 152.5,336.5C 155.07,337.634 157.736,338.468 160.5,339C 160.043,339.414 159.709,339.914 159.5,340.5C 160.76,341.382 161.926,342.382 163,343.5C 164.183,342.269 165.349,342.269 166.5,343.5C 167.624,344.914 168.624,346.414 169.5,348C 169.167,348.333 168.833,348.667 168.5,349C 169.987,351.485 171.821,353.652 174,355.5C 174.333,355.167 174.667,354.833 175,354.5C 174.877,356.45 175.877,358.117 178,359.5C 178.333,358.833 178.667,358.167 179,357.5C 180.487,358.253 180.654,359.086 179.5,360C 181.848,360.346 183.681,361.513 185,363.5C 185.333,363.167 185.667,362.833 186,362.5C 188.36,364.86 190.694,367.194 193,369.5C 193.414,369.043 193.914,368.709 194.5,368.5C 196.284,370.517 198.284,372.184 200.5,373.5 Z"/></g>
<g><path style="opacity:1" fill="#414d56" d="M 279.5,150.5 C 282.373,150.802 285.039,151.469 287.5,152.5C 288.607,154.969 290.607,155.969 293.5,155.5C 293.36,157.124 294.027,158.29 295.5,159C 285.307,170.058 273.974,178.058 261.5,183C 253.332,185.582 245.165,188.082 237,190.5C 230.982,190.837 224.815,190.837 218.5,190.5C 217.459,192.991 216.626,192.991 216,190.5C 215.225,192.223 213.892,193.223 212,193.5C 206.306,192.425 200.473,192.925 194.5,195C 193.748,195.671 193.414,196.504 193.5,197.5C 192.326,196.486 191.66,195.153 191.5,193.5C 191.221,190.882 190.554,188.382 189.5,186C 190.61,183.747 192.443,182.581 195,182.5C 209.163,183.507 224.496,183.507 241,182.5C 244.316,181.063 247.65,179.73 251,178.5C 251.333,178.833 251.667,179.167 252,179.5C 252.489,177.396 253.655,177.062 255.5,178.5C 260.793,176.187 265.793,173.354 270.5,170C 271.293,168.915 271.96,167.748 272.5,166.5C 277.563,164.436 280.896,160.769 282.5,155.5C 282.677,153.032 281.677,151.365 279.5,150.5 Z"/></g>
<g><path style="opacity:1" fill="#39434c" d="M 287.5,152.5 C 294.782,153.973 301.782,156.307 308.5,159.5C 308.665,161.827 309.331,163.993 310.5,166C 309.874,166.75 309.374,167.584 309,168.5C 308.667,168.167 308.333,167.833 308,167.5C 304.763,171.614 301.097,175.281 297,178.5C 296.667,178.167 296.333,177.833 296,177.5C 291.667,180.167 287.333,182.833 283,185.5C 282.667,185.167 282.333,184.833 282,184.5C 278.936,188.624 274.77,191.124 269.5,192C 270.167,192.333 270.833,192.667 271.5,193C 269.667,193.5 268.5,194.667 268,196.5C 267.667,196.167 267.333,195.833 267,195.5C 265.846,196.743 264.512,197.743 263,198.5C 262.667,197.833 262.333,197.167 262,196.5C 253.552,198.209 244.885,199.542 236,200.5C 233.123,200.437 232.289,201.437 233.5,203.5C 227.31,203.177 221.31,203.51 215.5,204.5C 215.5,205.167 215.5,205.833 215.5,206.5C 214.508,206.328 213.842,206.662 213.5,207.5C 208.167,207.5 202.833,207.5 197.5,207.5C 195.972,204.251 194.639,200.918 193.5,197.5C 193.414,196.504 193.748,195.671 194.5,195C 200.473,192.925 206.306,192.425 212,193.5C 213.892,193.223 215.225,192.223 216,190.5C 216.626,192.991 217.459,192.991 218.5,190.5C 224.815,190.837 230.982,190.837 237,190.5C 245.165,188.082 253.332,185.582 261.5,183C 273.974,178.058 285.307,170.058 295.5,159C 294.027,158.29 293.36,157.124 293.5,155.5C 290.607,155.969 288.607,154.969 287.5,152.5 Z"/></g>
<g><path style="opacity:1" fill="#f7f7f6" d="M 334.5,172.5 C 349.167,172.5 363.833,172.5 378.5,172.5C 382.167,172.5 385.833,172.5 389.5,172.5C 389.809,183.248 389.476,193.915 388.5,204.5C 364.137,228.862 340.137,253.529 316.5,278.5C 314.574,279.242 312.741,280.242 311,281.5C 302.916,280.968 294.916,280.634 287,280.5C 285.739,280.759 284.739,281.426 284,282.5C 284.135,280.575 284.302,278.575 284.5,276.5C 293.973,254.079 303.64,231.746 313.5,209.5C 313.833,208.833 314.167,208.167 314.5,207.5C 319.01,199.142 323.01,190.475 326.5,181.5C 328.071,179.365 329.404,177.032 330.5,174.5C 331.514,173.326 332.847,172.66 334.5,172.5 Z"/></g>
<g><path style="opacity:1" fill="#f8f7f6" d="M 167.5,172.5 C 170.167,172.5 172.833,172.5 175.5,172.5C 177.95,172.298 180.283,172.631 182.5,173.5C 184.989,180.472 187.989,187.139 191.5,193.5C 191.66,195.153 192.326,196.486 193.5,197.5C 194.639,200.918 195.972,204.251 197.5,207.5C 197.989,208.995 198.655,210.329 199.5,211.5C 199.328,212.492 199.662,213.158 200.5,213.5C 209.558,235.283 218.891,256.95 228.5,278.5C 228.372,280.09 227.705,281.423 226.5,282.5C 221.19,281.783 215.856,281.116 210.5,280.5C 208.247,281.201 206.081,281.534 204,281.5C 203.055,281.095 202.388,280.428 202,279.5C 200.301,280.406 198.467,280.739 196.5,280.5C 184.538,267.37 172.372,254.37 160,241.5C 147.934,228.932 135.434,216.932 122.5,205.5C 122.5,194.5 122.5,183.5 122.5,172.5C 137.5,172.5 152.5,172.5 167.5,172.5 Z"/></g>
<g><path style="opacity:1" fill="#323c45" d="M 308.5,159.5 C 316.527,163.511 323.86,168.511 330.5,174.5C 329.404,177.032 328.071,179.365 326.5,181.5C 324.468,181.478 322.302,181.145 320,180.5C 311.952,184.106 304.452,188.606 297.5,194C 296.167,194.333 294.833,194.667 293.5,195C 294.641,195.741 294.641,196.575 293.5,197.5C 291.219,198.277 289.052,199.277 287,200.5C 285.23,199.724 283.397,199.89 281.5,201C 281.833,201.333 282.167,201.667 282.5,202C 281.5,202.333 280.5,202.667 279.5,203C 264.17,203.5 248.837,203.667 233.5,203.5C 232.289,201.437 233.123,200.437 236,200.5C 244.885,199.542 253.552,198.209 262,196.5C 262.333,197.167 262.667,197.833 263,198.5C 264.512,197.743 265.846,196.743 267,195.5C 267.333,195.833 267.667,196.167 268,196.5C 268.5,194.667 269.667,193.5 271.5,193C 270.833,192.667 270.167,192.333 269.5,192C 274.77,191.124 278.936,188.624 282,184.5C 282.333,184.833 282.667,185.167 283,185.5C 287.333,182.833 291.667,180.167 296,177.5C 296.333,177.833 296.667,178.167 297,178.5C 301.097,175.281 304.763,171.614 308,167.5C 308.333,167.833 308.667,168.167 309,168.5C 309.374,167.584 309.874,166.75 310.5,166C 309.331,163.993 308.665,161.827 308.5,159.5 Z"/></g>
<g><path style="opacity:1" fill="#543a1e" d="M 389.5,172.5 C 391.308,173.918 391.975,175.918 391.5,178.5C 391.666,186.84 391.5,195.173 391,203.5C 390.768,204.737 390.268,205.737 389.5,206.5C 389.672,205.508 389.338,204.842 388.5,204.5C 389.476,193.915 389.809,183.248 389.5,172.5 Z"/></g>
<g><path style="opacity:1" fill="#2a3137" d="M 326.5,181.5 C 323.01,190.475 319.01,199.142 314.5,207.5C 308.441,207.746 302.441,207.413 296.5,206.5C 269.854,204.509 242.854,203.842 215.5,204.5C 221.31,203.51 227.31,203.177 233.5,203.5C 248.837,203.667 264.17,203.5 279.5,203C 280.5,202.667 281.5,202.333 282.5,202C 282.167,201.667 281.833,201.333 281.5,201C 283.397,199.89 285.23,199.724 287,200.5C 289.052,199.277 291.219,198.277 293.5,197.5C 294.641,196.575 294.641,195.741 293.5,195C 294.833,194.667 296.167,194.333 297.5,194C 304.452,188.606 311.952,184.106 320,180.5C 322.302,181.145 324.468,181.478 326.5,181.5 Z"/></g>
<g><path style="opacity:1" fill="#f09901" d="M 73.5,170.5 C 65.7632,177.367 57.0966,182.701 47.5,186.5C 63.174,241.201 78.8406,295.867 94.5,350.5C 96.3539,357.564 98.5205,364.564 101,371.5C 101.903,372.701 103.069,373.535 104.5,374C 103.264,375.085 101.931,375.918 100.5,376.5C 97.2523,376.224 95.2523,374.557 94.5,371.5C 77.0326,308.456 59.0326,245.622 40.5,183C 40.6448,182.228 40.9781,181.561 41.5,181C 53.7252,177.929 64.0585,171.762 72.5,162.5C 75.8382,161.981 78.5048,160.815 80.5,159C 79.0473,163.412 76.714,167.245 73.5,170.5 Z"/></g>
<g><path style="opacity:1" fill="#cf7300" d="M 435.5,158.5 C 442.812,167.996 452.479,173.663 464.5,175.5C 449.812,241.739 433.979,307.739 417,373.5C 410.336,376.916 403.503,379.916 396.5,382.5C 395.735,382.077 394.902,381.743 394,381.5C 391.346,382.867 388.513,383.867 385.5,384.5C 386.999,385.904 386.666,386.57 384.5,386.5C 381.937,386.263 381.937,385.763 384.5,385C 383.584,384.722 382.918,384.222 382.5,383.5C 383.71,383.068 384.71,382.401 385.5,381.5C 395.024,377.82 404.191,373.487 413,368.5C 429.26,305.605 444.76,242.938 459.5,180.5C 445.71,176.883 435.21,168.883 428,156.5C 427.333,155.167 427.333,153.833 428,152.5C 428.605,154.481 429.605,154.815 431,153.5C 431.333,155.167 431.667,156.833 432,158.5C 433.073,158.799 434.24,158.799 435.5,158.5 Z"/></g>
<g><path style="opacity:1" fill="#696c70" d="M 478.5,176.5 C 478.665,179.85 478.498,183.183 478,186.5C 462.447,255.712 446.113,324.712 429,393.5C 424.742,396.38 420.242,398.88 415.5,401C 362.945,424.111 310.278,446.945 257.5,469.5C 199.584,446.142 142.417,421.142 86,394.5C 69.4681,337.903 53.1348,281.236 37,224.5C 32.868,210.639 29.368,196.639 26.5,182.5C 27.4098,184.019 28.2432,185.685 29,187.5C 48.0401,255.998 67.5401,324.332 87.5,392.5C 92.0002,395.585 96.6669,398.418 101.5,401C 153.171,424.079 205.338,446.245 258,467.5C 265.768,465.782 272.768,462.449 279,457.5C 289.843,452.649 300.676,447.815 311.5,443C 319.74,441.121 327.407,437.787 334.5,433C 343.679,429.241 352.679,425.241 361.5,421C 369.018,417.793 376.684,415.126 384.5,413C 386.167,411.667 387.833,410.333 389.5,409C 396.167,406 402.833,403 409.5,400C 416.287,398.515 422.454,395.682 428,391.5C 443.208,325.672 458.874,260.005 475,194.5C 476.052,188.883 476.718,183.216 477,177.5C 477.383,176.944 477.883,176.611 478.5,176.5 Z"/></g>
<g><path style="opacity:1" fill="#d07a01" d="M 396.5,382.5 C 351.381,402.714 305.714,421.881 259.5,440C 256.833,440.667 254.167,440.667 251.5,440C 229.945,431.434 208.612,422.6 187.5,413.5C 189.492,413.672 191.158,413.005 192.5,411.5C 199.884,413.796 206.884,416.962 213.5,421C 221.012,423.058 228.179,425.891 235,429.5C 235.5,429.333 236,429.167 236.5,429C 235.151,428.228 234.318,427.061 234,425.5C 233.667,425.833 233.333,426.167 233,426.5C 231.412,424.192 229.412,423.525 227,424.5C 226.5,423.333 225.667,422.5 224.5,422C 227.816,421.33 230.816,420.164 233.5,418.5C 233.291,417.914 232.957,417.414 232.5,417C 236.999,413.471 236.332,411.471 230.5,411C 232.797,409.84 232.464,408.84 229.5,408C 231.945,402.811 235.779,400.311 241,400.5C 242.333,403.167 243.667,403.167 245,400.5C 246.333,401.167 247.667,401.833 249,402.5C 251.72,401.689 254.22,401.689 256.5,402.5C 257.696,402.154 257.696,401.654 256.5,401C 257.737,400.768 258.737,400.268 259.5,399.5C 271.953,394.107 284.286,388.44 296.5,382.5C 296.038,384.757 295.038,386.757 293.5,388.5C 291.422,388.82 289.256,389.82 287,391.5C 284.342,397.479 281.842,403.146 279.5,408.5C 280.374,410.705 279.708,412.538 277.5,414C 279.125,414.853 279.458,415.853 278.5,417C 279.766,417.309 280.933,417.809 282,418.5C 282.333,417.5 282.667,416.5 283,415.5C 284.688,417.045 286.688,418.045 289,418.5C 292.622,417.231 296.288,417.231 300,418.5C 315.392,412.218 330.559,405.551 345.5,398.5C 357.936,393.783 370.269,388.783 382.5,383.5C 382.918,384.222 383.584,384.722 384.5,385C 381.937,385.763 381.937,386.263 384.5,386.5C 386.666,386.57 386.999,385.904 385.5,384.5C 388.513,383.867 391.346,382.867 394,381.5C 394.902,381.743 395.735,382.077 396.5,382.5 Z"/></g>
<g><path style="opacity:1" fill="#d5951e" d="M 227.5,378.5 C 234.981,381.406 241.981,385.072 248.5,389.5C 248.833,390.167 249.167,390.833 249.5,391.5C 242.85,388.509 236.183,385.509 229.5,382.5C 228.37,381.378 227.703,380.044 227.5,378.5 Z"/></g>
<g><path style="opacity:1" fill="#fdc208" d="M 363.5,321.5 C 355.178,331.821 346.511,341.821 337.5,351.5C 325.05,363.546 311.384,373.879 296.5,382.5C 284.286,388.44 271.953,394.107 259.5,399.5C 255.429,399.88 251.762,398.88 248.5,396.5C 248.5,395.5 248.5,394.5 248.5,393.5C 251.925,393.633 252.258,392.967 249.5,391.5C 249.167,390.833 248.833,390.167 248.5,389.5C 251.366,390.759 254.366,391.759 257.5,392.5C 281.462,384.692 303.129,373.025 322.5,357.5C 335.564,346.77 347.231,334.77 357.5,321.5C 360.079,319.188 362.746,316.855 365.5,314.5C 365.833,314.667 366.167,314.833 366.5,315C 364.781,316.87 363.781,319.037 363.5,321.5 Z"/></g>
<g><path style="opacity:1" fill="#ca861a" d="M 322.5,354.5 C 322.5,355.5 322.5,356.5 322.5,357.5C 303.129,373.025 281.462,384.692 257.5,392.5C 270.879,385.762 284.213,378.929 297.5,372C 306.543,367.115 314.876,361.281 322.5,354.5 Z"/></g>
<g><path style="opacity:1" fill="#c26e00" d="M 337.5,351.5 C 337.297,353.044 336.63,354.378 335.5,355.5C 336.326,356.451 336.492,357.451 336,358.5C 333.14,361.36 330.306,364.194 327.5,367C 328.308,367.308 328.975,367.808 329.5,368.5C 328.167,369.5 328.167,370.5 329.5,371.5C 328.752,373.332 327.752,374.999 326.5,376.5C 326.453,379.489 326.786,382.323 327.5,385C 323.869,388.55 323.536,392.05 326.5,395.5C 325.167,396.5 325.167,397.5 326.5,398.5C 328.747,399.245 330.58,400.578 332,402.5C 333.191,400.085 335.191,398.752 338,398.5C 340.493,398.34 342.993,398.34 345.5,398.5C 330.559,405.551 315.392,412.218 300,418.5C 296.288,417.231 292.622,417.231 289,418.5C 286.688,418.045 284.688,417.045 283,415.5C 282.667,416.5 282.333,417.5 282,418.5C 280.933,417.809 279.766,417.309 278.5,417C 279.458,415.853 279.125,414.853 277.5,414C 279.708,412.538 280.374,410.705 279.5,408.5C 281.842,403.146 284.342,397.479 287,391.5C 289.256,389.82 291.422,388.82 293.5,388.5C 295.038,386.757 296.038,384.757 296.5,382.5C 311.384,373.879 325.05,363.546 337.5,351.5 Z"/></g>
<g><path style="opacity:1" fill="#a28038" d="M 196.5,357.5 C 207.015,364.255 217.348,371.255 227.5,378.5C 216.436,373.463 206.103,367.129 196.5,359.5C 196.5,358.833 196.5,358.167 196.5,357.5 Z"/></g>
<g><path style="opacity:1" fill="#fdb602" d="M 127.5,252.5 C 129.905,261.481 132.571,270.481 135.5,279.5C 139.958,291.755 145.958,303.089 153.5,313.5C 165.017,331.354 179.35,346.688 196.5,359.5C 206.103,367.129 216.436,373.463 227.5,378.5C 227.703,380.044 228.37,381.378 229.5,382.5C 236.183,385.509 242.85,388.509 249.5,391.5C 252.258,392.967 251.925,393.633 248.5,393.5C 248.5,394.5 248.5,395.5 248.5,396.5C 240.049,393.108 231.716,389.441 223.5,385.5C 200.233,372.087 179.4,355.42 161,335.5C 153.187,325.693 146.187,315.359 140,304.5C 130.015,287.868 125.348,269.868 126,250.5C 126.278,251.416 126.778,252.082 127.5,252.5 Z"/></g>
<g><path style="opacity:1" fill="#d77e0c" d="M 383.5,253.5 C 384.167,254.833 384.833,256.167 385.5,257.5C 383.572,265.618 381.238,273.618 378.5,281.5C 372.553,295.394 365.553,308.727 357.5,321.5C 347.231,334.77 335.564,346.77 322.5,357.5C 322.5,356.5 322.5,355.5 322.5,354.5C 354.03,327.628 374.364,293.961 383.5,253.5 Z"/></g>
<g><path style="opacity:1" fill="#c4821a" d="M 155.5,312.5 C 167.094,329.328 180.761,344.328 196.5,357.5C 196.5,358.167 196.5,358.833 196.5,359.5C 179.35,346.688 165.017,331.354 153.5,313.5C 154.925,315.031 155.591,314.698 155.5,312.5 Z"/></g>
<g><path style="opacity:1" fill="#db8100" d="M 200.5,373.5 C 207.69,377.737 214.857,382.07 222,386.5C 222.383,385.944 222.883,385.611 223.5,385.5C 231.716,389.441 240.049,393.108 248.5,396.5C 251.762,398.88 255.429,399.88 259.5,399.5C 258.737,400.268 257.737,400.768 256.5,401C 257.696,401.654 257.696,402.154 256.5,402.5C 254.22,401.689 251.72,401.689 249,402.5C 247.667,401.833 246.333,401.167 245,400.5C 243.667,403.167 242.333,403.167 241,400.5C 235.779,400.311 231.945,402.811 229.5,408C 232.464,408.84 232.797,409.84 230.5,411C 236.332,411.471 236.999,413.471 232.5,417C 232.957,417.414 233.291,417.914 233.5,418.5C 230.816,420.164 227.816,421.33 224.5,422C 225.667,422.5 226.5,423.333 227,424.5C 229.412,423.525 231.412,424.192 233,426.5C 233.333,426.167 233.667,425.833 234,425.5C 234.318,427.061 235.151,428.228 236.5,429C 236,429.167 235.5,429.333 235,429.5C 228.179,425.891 221.012,423.058 213.5,421C 206.884,416.962 199.884,413.796 192.5,411.5C 191.158,413.005 189.492,413.672 187.5,413.5C 158.085,401.954 129.085,389.621 100.5,376.5C 101.931,375.918 103.264,375.085 104.5,374C 103.069,373.535 101.903,372.701 101,371.5C 98.5205,364.564 96.3539,357.564 94.5,350.5C 94.2155,348.123 94.2155,345.956 94.5,344C 92.4346,339.536 91.1012,334.869 90.5,330C 90.9774,324.806 90.9774,319.806 90.5,315C 92.1667,314.667 93.8333,314.333 95.5,314C 95.1667,313.667 94.8333,313.333 94.5,313C 96.3785,311.556 98.0452,312.056 99.5,314.5C 100.816,311.972 101.983,311.972 103,314.5C 103.419,313.328 104.085,312.328 105,311.5C 105.862,313.087 106.529,314.754 107,316.5C 108.011,315.663 109.178,315.33 110.5,315.5C 110.906,317.109 110.906,318.443 110.5,319.5C 105.47,316.259 104.303,317.259 107,322.5C 107.388,321.572 108.055,320.905 109,320.5C 110.762,320.944 110.595,321.444 108.5,322C 109.516,322.519 110.182,323.353 110.5,324.5C 109.577,326.129 109.243,327.629 109.5,329C 109.833,329.167 110.167,329.333 110.5,329.5C 111.281,328.271 111.781,326.938 112,325.5C 112.414,325.957 112.914,326.291 113.5,326.5C 113.5,328.167 113.5,329.833 113.5,331.5C 114.989,331.533 116.322,332.033 117.5,333C 116.167,334.84 116.334,335.34 118,334.5C 118.617,335.449 118.451,336.282 117.5,337C 118.701,337.903 119.535,339.069 120,340.5C 121.525,340.888 123.192,340.888 125,340.5C 127.088,341.308 129.088,342.308 131,343.5C 131.333,343.167 131.667,342.833 132,342.5C 132.317,344.301 132.984,344.634 134,343.5C 134.483,344.448 134.649,345.448 134.5,346.5C 138.681,347.411 142.681,347.411 146.5,346.5C 148.775,342.832 151.275,342.832 154,346.5C 155,345.833 156,345.167 157,344.5C 157.687,347.426 159.52,348.759 162.5,348.5C 162.343,349.873 162.51,351.207 163,352.5C 163.333,351.833 163.667,351.167 164,350.5C 164.5,352.333 165.667,353.5 167.5,354C 167.335,355.837 166.668,357.837 165.5,360C 166.448,360.483 167.448,360.649 168.5,360.5C 168.351,361.552 168.517,362.552 169,363.5C 171.811,364.223 174.311,366.056 176.5,369C 176.167,369.333 175.833,369.667 175.5,370C 177.221,371.437 178.721,370.937 180,368.5C 182.411,370.134 184.411,371.467 186,372.5C 188.39,372.316 190.724,372.316 193,372.5C 193.739,373.574 194.739,374.241 196,374.5C 197.598,374.07 199.098,373.736 200.5,373.5 Z"/></g>
<g><path style="opacity:1" fill="#d17f0a" d="M 133.5,262.5 C 138.324,280.319 145.658,296.986 155.5,312.5C 155.591,314.698 154.925,315.031 153.5,313.5C 145.958,303.089 139.958,291.755 135.5,279.5C 136.097,279.265 136.43,278.765 136.5,278C 134.863,273.589 133.53,269.089 132.5,264.5C 132.543,263.584 132.876,262.917 133.5,262.5 Z"/></g>
<g><path style="opacity:1" fill="#feb303" d="M 382.5,285.5 C 378.231,298.71 371.897,310.71 363.5,321.5C 363.781,319.037 364.781,316.87 366.5,315C 366.167,314.833 365.833,314.667 365.5,314.5C 362.746,316.855 360.079,319.188 357.5,321.5C 365.553,308.727 372.553,295.394 378.5,281.5C 380.173,280.657 381.34,279.324 382,277.5C 382.497,280.146 382.664,282.813 382.5,285.5 Z"/></g>
<g><path style="opacity:1" fill="#fa9f01" d="M 382.5,285.5 C 382.664,282.813 382.497,280.146 382,277.5C 381.34,279.324 380.173,280.657 378.5,281.5C 381.238,273.618 383.572,265.618 385.5,257.5C 387.651,247.913 389.484,238.246 391,228.5C 393.15,248.404 390.317,267.404 382.5,285.5 Z"/></g>
<g><path style="opacity:1" fill="#b85e04" d="M 122.5,207.5 C 124.828,208.736 125.994,210.736 126,213.5C 127.3,230.042 129.8,246.376 133.5,262.5C 132.876,262.917 132.543,263.584 132.5,264.5C 133.53,269.089 134.863,273.589 136.5,278C 136.43,278.765 136.097,279.265 135.5,279.5C 132.571,270.481 129.905,261.481 127.5,252.5C 124.436,237.658 122.77,222.658 122.5,207.5 Z"/></g>
<g><path style="opacity:1" fill="#040303" d="M 388.5,204.5 C 389.338,204.842 389.672,205.508 389.5,206.5C 388.076,222.227 386.076,237.894 383.5,253.5C 374.364,293.961 354.03,327.628 322.5,354.5C 314.876,361.281 306.543,367.115 297.5,372C 284.213,378.929 270.879,385.762 257.5,392.5C 254.366,391.759 251.366,390.759 248.5,389.5C 241.981,385.072 234.981,381.406 227.5,378.5C 217.348,371.255 207.015,364.255 196.5,357.5C 180.761,344.328 167.094,329.328 155.5,312.5C 145.658,296.986 138.324,280.319 133.5,262.5C 129.8,246.376 127.3,230.042 126,213.5C 125.994,210.736 124.828,208.736 122.5,207.5C 122.5,206.833 122.5,206.167 122.5,205.5C 135.434,216.932 147.934,228.932 160,241.5C 172.372,254.37 184.538,267.37 196.5,280.5C 203.827,289.159 211.493,297.493 219.5,305.5C 223.528,309.859 227.528,314.193 231.5,318.5C 239.096,327.599 247.263,336.266 256,344.5C 263.729,336.276 271.229,327.943 278.5,319.5C 283.833,314.833 288.833,309.833 293.5,304.5C 301.189,295.814 308.856,287.147 316.5,278.5C 340.137,253.529 364.137,228.862 388.5,204.5 Z"/></g>
<g><path style="opacity:1" fill="#111519" d="M 353.5,297.5 C 352.261,300.589 350.761,303.589 349,306.5C 326.035,337.128 296.535,358.961 260.5,372C 256.833,372.667 253.167,372.667 249.5,372C 221.493,361.021 197.827,344.187 178.5,321.5C 181.446,322.489 184.113,323.822 186.5,325.5C 186.238,326.978 186.571,328.311 187.5,329.5C 188.906,328.332 190.072,328.665 191,330.5C 191.667,329.167 192.667,328.167 194,327.5C 197.541,327.999 201.208,328.999 205,330.5C 205.805,328.099 206.638,328.266 207.5,331C 210.433,331.446 213.433,332.113 216.5,333C 216.167,333.333 215.833,333.667 215.5,334C 218.2,336.405 220.033,335.905 221,332.5C 223.055,333.495 224.221,332.662 224.5,330C 221.275,326.283 218.275,322.45 215.5,318.5C 223.333,324.494 229.5,331.828 234,340.5C 242.111,347.28 248.778,355.28 254,364.5C 256.871,367.103 259.538,366.77 262,363.5C 268.911,352.362 277.245,342.362 287,333.5C 293.848,322.81 302.015,313.144 311.5,304.5C 309.45,307.234 307.784,310.234 306.5,313.5C 305.646,314.522 304.646,315.355 303.5,316C 305,316.833 306.167,318 307,319.5C 310.927,318.693 314.427,317.026 317.5,314.5C 316.975,313.808 316.308,313.308 315.5,313C 320.018,312.47 324.351,311.304 328.5,309.5C 330.82,310.762 332.654,310.095 334,307.5C 334.561,308.022 335.228,308.355 336,308.5C 338.444,307.353 340.777,306.019 343,304.5C 343.333,305.167 343.667,305.833 344,306.5C 345.57,305.386 346.903,304.053 348,302.5C 348.333,302.833 348.667,303.167 349,303.5C 349.822,301.212 350.489,298.878 351,296.5C 351.671,297.252 352.504,297.586 353.5,297.5 Z"/></g>
<g><path style="opacity:1" fill="#afb1b4" d="M 231.5,318.5 C 234.456,320.441 237.789,321.774 241.5,322.5C 252.367,321.441 262.867,321.441 273,322.5C 274.167,321.333 275.333,320.167 276.5,319C 277.437,318.308 278.103,318.475 278.5,319.5C 271.229,327.943 263.729,336.276 256,344.5C 247.263,336.266 239.096,327.599 231.5,318.5 Z"/></g>
<g><path style="opacity:1" fill="#bfc0c2" d="M 293.5,304.5 C 288.833,309.833 283.833,314.833 278.5,319.5C 278.103,318.475 277.437,318.308 276.5,319C 275.333,320.167 274.167,321.333 273,322.5C 262.867,321.441 252.367,321.441 241.5,322.5C 237.789,321.774 234.456,320.441 231.5,318.5C 227.528,314.193 223.528,309.859 219.5,305.5C 221.821,305.658 223.654,306.658 225,308.5C 225.667,307.833 226.333,307.167 227,306.5C 228,307.833 229,307.833 230,306.5C 230.308,307.308 230.808,307.975 231.5,308.5C 238.741,308.234 245.575,307.9 252,307.5C 253.667,308.167 255.333,308.833 257,309.5C 257.667,308.833 258.333,308.167 259,307.5C 264.682,308.19 270.349,308.523 276,308.5C 280.168,306.391 284.168,304.724 288,303.5C 288.333,304.167 288.667,304.833 289,305.5C 290.356,304.62 291.856,304.286 293.5,304.5 Z"/></g>
<g><path style="opacity:1" fill="#181d23" d="M 193.5,294.5 C 201.764,301.732 209.097,309.732 215.5,318.5C 218.275,322.45 221.275,326.283 224.5,330C 224.221,332.662 223.055,333.495 221,332.5C 220.033,335.905 218.2,336.405 215.5,334C 215.833,333.667 216.167,333.333 216.5,333C 213.433,332.113 210.433,331.446 207.5,331C 206.638,328.266 205.805,328.099 205,330.5C 201.208,328.999 197.541,327.999 194,327.5C 192.667,328.167 191.667,329.167 191,330.5C 190.072,328.665 188.906,328.332 187.5,329.5C 186.571,328.311 186.238,326.978 186.5,325.5C 184.113,323.822 181.446,322.489 178.5,321.5C 173.399,316.064 169.066,310.064 165.5,303.5C 167.884,303.557 170.218,303.223 172.5,302.5C 175.039,305.04 178.039,305.874 181.5,305C 176.502,304.572 176.335,303.739 181,302.5C 183.684,303.068 186.184,304.068 188.5,305.5C 189.842,304.098 190.676,304.431 191,306.5C 191.959,304.342 193.459,304.009 195.5,305.5C 196.647,305.182 197.481,304.516 198,303.5C 199.516,306.051 200.349,305.718 200.5,302.5C 199.167,302.5 197.833,302.5 196.5,302.5C 196.428,299.447 195.428,296.781 193.5,294.5 Z"/></g>
<g><path style="opacity:1" fill="#22282f" d="M 172.5,270.5 C 180.239,277.902 187.239,285.902 193.5,294.5C 195.428,296.781 196.428,299.447 196.5,302.5C 197.833,302.5 199.167,302.5 200.5,302.5C 200.349,305.718 199.516,306.051 198,303.5C 197.481,304.516 196.647,305.182 195.5,305.5C 193.459,304.009 191.959,304.342 191,306.5C 190.676,304.431 189.842,304.098 188.5,305.5C 186.184,304.068 183.684,303.068 181,302.5C 176.335,303.739 176.502,304.572 181.5,305C 178.039,305.874 175.039,305.04 172.5,302.5C 170.218,303.223 167.884,303.557 165.5,303.5C 159.505,295.523 154.505,286.856 150.5,277.5C 151.5,277.5 152.5,277.5 153.5,277.5C 154.02,284.614 156.353,285.614 160.5,280.5C 161.788,282.475 163.455,282.475 165.5,280.5C 166.696,280.846 166.696,281.346 165.5,282C 167.679,283.987 169.512,283.82 171,281.5C 172.667,282.833 174.333,284.167 176,285.5C 177.667,284.167 179.333,284.167 181,285.5C 181.49,284.207 181.657,282.873 181.5,281.5C 180.07,281.579 178.736,281.246 177.5,280.5C 176.664,276.688 174.997,273.355 172.5,270.5 Z"/></g>
<g><path style="opacity:1" fill="#d0d1d0" d="M 284.5,276.5 C 284.302,278.575 284.135,280.575 284,282.5C 284.739,281.426 285.739,280.759 287,280.5C 294.916,280.634 302.916,280.968 311,281.5C 312.741,280.242 314.574,279.242 316.5,278.5C 308.856,287.147 301.189,295.814 293.5,304.5C 291.856,304.286 290.356,304.62 289,305.5C 288.667,304.833 288.333,304.167 288,303.5C 284.168,304.724 280.168,306.391 276,308.5C 270.349,308.523 264.682,308.19 259,307.5C 258.333,308.167 257.667,308.833 257,309.5C 255.333,308.833 253.667,308.167 252,307.5C 245.575,307.9 238.741,308.234 231.5,308.5C 230.808,307.975 230.308,307.308 230,306.5C 229,307.833 228,307.833 227,306.5C 226.333,307.167 225.667,307.833 225,308.5C 223.654,306.658 221.821,305.658 219.5,305.5C 211.493,297.493 203.827,289.159 196.5,280.5C 198.467,280.739 200.301,280.406 202,279.5C 202.388,280.428 203.055,281.095 204,281.5C 206.081,281.534 208.247,281.201 210.5,280.5C 215.856,281.116 221.19,281.783 226.5,282.5C 227.705,281.423 228.372,280.09 228.5,278.5C 229.738,280.214 230.405,282.214 230.5,284.5C 238.573,285.132 246.24,284.465 253.5,282.5C 255.523,284.701 257.856,285.034 260.5,283.5C 266.987,284.654 273.654,284.821 280.5,284C 282.004,281.486 283.338,278.986 284.5,276.5 Z"/></g>
<g><path style="opacity:1" fill="#1d232a" d="M 353.5,297.5 C 352.504,297.586 351.671,297.252 351,296.5C 350.489,298.878 349.822,301.212 349,303.5C 348.667,303.167 348.333,302.833 348,302.5C 346.903,304.053 345.57,305.386 344,306.5C 343.667,305.833 343.333,305.167 343,304.5C 340.777,306.019 338.444,307.353 336,308.5C 335.228,308.355 334.561,308.022 334,307.5C 332.654,310.095 330.82,310.762 328.5,309.5C 324.351,311.304 320.018,312.47 315.5,313C 316.308,313.308 316.975,313.808 317.5,314.5C 314.427,317.026 310.927,318.693 307,319.5C 306.167,318 305,316.833 303.5,316C 304.646,315.355 305.646,314.522 306.5,313.5C 307.784,310.234 309.45,307.234 311.5,304.5C 330.744,280.753 351.578,258.42 374,237.5C 371.446,258.997 364.612,278.997 353.5,297.5 Z"/></g>
<g><path style="opacity:1" fill="#2c353f" d="M 172.5,270.5 C 174.997,273.355 176.664,276.688 177.5,280.5C 178.736,281.246 180.07,281.579 181.5,281.5C 181.657,282.873 181.49,284.207 181,285.5C 179.333,284.167 177.667,284.167 176,285.5C 174.333,284.167 172.667,282.833 171,281.5C 169.512,283.82 167.679,283.987 165.5,282C 166.696,281.346 166.696,280.846 165.5,280.5C 163.455,282.475 161.788,282.475 160.5,280.5C 156.353,285.614 154.02,284.614 153.5,277.5C 152.5,277.5 151.5,277.5 150.5,277.5C 145.445,266.281 141.778,254.614 139.5,242.5C 139.833,241.167 140.167,239.833 140.5,238.5C 152.068,248.34 162.735,259.006 172.5,270.5 Z"/></g>
<g><path style="opacity:1" fill="#be6805" d="M 218.5,212.5 C 230.675,235.516 242.341,258.849 253.5,282.5C 246.24,284.465 238.573,285.132 230.5,284.5C 230.405,282.214 229.738,280.214 228.5,278.5C 218.891,256.95 209.558,235.283 200.5,213.5C 206.31,212.51 212.31,212.177 218.5,212.5 Z"/></g>
<g><path style="opacity:1" fill="#b36205" d="M 295.5,209.5 C 295.47,210.497 295.97,211.164 297,211.5C 302.425,210.225 307.925,209.558 313.5,209.5C 303.64,231.746 293.973,254.079 284.5,276.5C 283.338,278.986 282.004,281.486 280.5,284C 273.654,284.821 266.987,284.654 260.5,283.5C 272.187,258.795 283.854,234.128 295.5,209.5 Z"/></g>
<g><path style="opacity:1" fill="#894904" d="M 215.5,206.5 C 217.025,208.216 218.025,210.216 218.5,212.5C 212.31,212.177 206.31,212.51 200.5,213.5C 199.662,213.158 199.328,212.492 199.5,211.5C 204.167,210.167 208.833,208.833 213.5,207.5C 213.842,206.662 214.508,206.328 215.5,206.5 Z"/></g>
<g><path style="opacity:1" fill="#462e15" d="M 296.5,206.5 C 302.441,207.413 308.441,207.746 314.5,207.5C 314.167,208.167 313.833,208.833 313.5,209.5C 307.925,209.558 302.425,210.225 297,211.5C 295.97,211.164 295.47,210.497 295.5,209.5C 295.557,208.391 295.89,207.391 296.5,206.5 Z"/></g>
<g><path style="opacity:1" fill="#6b471a" d="M 197.5,207.5 C 202.833,207.5 208.167,207.5 213.5,207.5C 208.833,208.833 204.167,210.167 199.5,211.5C 198.655,210.329 197.989,208.995 197.5,207.5 Z"/></g>
<g><path style="opacity:1" fill="#f7f7f6" d="M 215.5,204.5 C 242.854,203.842 269.854,204.509 296.5,206.5C 295.89,207.391 295.557,208.391 295.5,209.5C 283.854,234.128 272.187,258.795 260.5,283.5C 257.856,285.034 255.523,284.701 253.5,282.5C 242.341,258.849 230.675,235.516 218.5,212.5C 218.025,210.216 217.025,208.216 215.5,206.5C 215.5,205.833 215.5,205.167 215.5,204.5 Z"/></g>
<g><path style="opacity:0.09" fill="#999895" d="M 509.5,469.5 C 510.833,470.167 510.833,470.167 509.5,469.5 Z"/></g>
<g><path style="opacity:0.09" fill="#999896" d="M 511.5,471.5 C 511.5,471.833 511.5,472.167 511.5,472.5C 510.83,472.019 510.83,471.685 511.5,471.5 Z"/></g>
<g><path style="opacity:0.09" fill="#9a9998" d="M 511.5,473.5 C 511.5,473.833 511.5,474.167 511.5,474.5C 510.83,474.019 510.83,473.685 511.5,473.5 Z"/></g>
<g><path style="opacity:0.09" fill="#999895" d="M 510.5,474.5 C 509.833,475.167 509.833,475.167 510.5,474.5 Z"/></g>
<g><path style="opacity:0.09" fill="#9a9a96" d="M 507.5,477.5 C 508.833,478.167 508.833,478.167 507.5,477.5 Z"/></g>
<g><path style="opacity:0.09" fill="#9a9b96" d="M 508.5,479.5 C 509.833,480.167 509.833,480.167 508.5,479.5 Z"/></g>
<g><path style="opacity:0.09" fill="#9a9a95" d="M 506.5,480.5 C 507.833,481.167 507.833,481.167 506.5,480.5 Z"/></g>
<g><path style="opacity:0.09" fill="#999996" d="M 509.5,481.5 C 510.833,482.167 510.833,482.167 509.5,481.5 Z"/></g>
<g><path style="opacity:0.09" fill="#9a9a96" d="M 502.5,483.5 C 501.833,482.167 501.833,482.167 502.5,483.5 Z"/></g>
<g><path style="opacity:0.09" fill="#999995" d="M 502.5,483.5 C 503.833,484.167 503.833,484.167 502.5,483.5 Z"/></g>
<g><path style="opacity:0.09" fill="#9b9997" d="M 511.5,483.5 C 511.5,483.833 511.5,484.167 511.5,484.5C 510.83,484.019 510.83,483.685 511.5,483.5 Z"/></g>
<g><path style="opacity:0.09" fill="#9a9995" d="M 504.5,484.5 C 505.833,485.167 505.833,485.167 504.5,484.5 Z"/></g>
<g><path style="opacity:0.18" fill="#989893" d="M 507.5,485.5 C 506.833,484.167 506.833,484.167 507.5,485.5 Z"/></g>
<g><path style="opacity:0.09" fill="#9a9a96" d="M 496.5,485.5 C 497.833,486.167 497.833,486.167 496.5,485.5 Z"/></g>
<g><path style="opacity:0.09" fill="#999995" d="M 502.5,485.5 C 503.833,486.167 503.833,486.167 502.5,485.5 Z"/></g>
<g><path style="opacity:0.09" fill="#9a9a97" d="M 502.5,486.5 C 501.833,487.167 501.833,487.167 502.5,486.5 Z"/></g>
<g><path style="opacity:0.18" fill="#999895" d="M 507.5,485.5 C 508.525,485.897 508.692,486.563 508,487.5C 507.536,486.906 507.369,486.239 507.5,485.5 Z"/></g>
<g><path style="opacity:0.09" fill="#9a9a97" d="M 506.5,489.5 C 505.833,488.167 505.833,488.167 506.5,489.5 Z"/></g>
<g><path style="opacity:0.18" fill="#999795" d="M 506.5,489.5 C 507.363,488.537 508.03,488.537 508.5,489.5C 507.743,490.773 507.077,490.773 506.5,489.5 Z"/></g>
<g><path style="opacity:0.09" fill="#9a9a96" d="M 501.5,490.5 C 502.833,491.167 502.833,491.167 501.5,490.5 Z"/></g>
<g><path style="opacity:0.09" fill="#999797" d="M 511.5,490.5 C 511.5,490.833 511.5,491.167 511.5,491.5C 508.833,491.167 508.833,490.833 511.5,490.5 Z"/></g>
<g><path style="opacity:0.09" fill="#999995" d="M 499.5,491.5 C 500.833,492.167 500.833,492.167 499.5,491.5 Z"/></g>
<g><path style="opacity:0.275" fill="#969792" d="M 508.5,492.5 C 507.833,491.167 507.833,491.167 508.5,492.5 Z"/></g>
<g><path style="opacity:0.09" fill="#9a9996" d="M 506.5,493.5 C 505.833,492.167 505.833,492.167 506.5,493.5 Z"/></g>
<g><path style="opacity:0.275" fill="#969693" d="M 508.5,492.5 C 509.833,493.167 509.833,493.167 508.5,492.5 Z"/></g>
<g><path style="opacity:0.09" fill="#999996" d="M 506.5,493.5 C 507.833,494.167 507.833,494.167 506.5,493.5 Z"/></g>
<g><path style="opacity:0.09" fill="#999997" d="M 500.5,494.5 C 501.833,495.167 501.833,495.167 500.5,494.5 Z"/></g>
<g><path style="opacity:0.18" fill="#979794" d="M 503.5,494.5 C 504.833,495.167 504.833,495.167 503.5,494.5 Z"/></g>
<g><path style="opacity:0.09" fill="#999996" d="M 506.5,494.5 C 506.5,494.833 506.5,495.167 506.5,495.5C 505.83,495.019 505.83,494.685 506.5,494.5 Z"/></g>
<g><path style="opacity:0.135" fill="#9a9896" d="M 510.5,495.5 C 509.761,495.631 509.094,495.464 508.5,495C 509.437,494.308 510.103,494.475 510.5,495.5 Z"/></g>
<g><path style="opacity:0.275" fill="#969693" d="M 503.5,495.5 C 503.5,495.833 503.5,496.167 503.5,496.5C 502.83,496.019 502.83,495.685 503.5,495.5 Z"/></g>
<g><path style="opacity:0.18" fill="#989794" d="M 506.5,495.5 C 507.833,496.167 507.833,496.167 506.5,495.5 Z"/></g>
<g><path style="opacity:0.09" fill="#9a9998" d="M 510.5,495.5 C 510.833,495.5 511.167,495.5 511.5,495.5C 511.5,495.833 511.5,496.167 511.5,496.5C 511.167,496.167 510.833,495.833 510.5,495.5 Z"/></g>
<g><path style="opacity:0.18" fill="#989795" d="M 502.5,496.5 C 501.833,497.167 501.833,497.167 502.5,496.5 Z"/></g>
<g><path style="opacity:0.275" fill="#959591" d="M 503.5,496.5 C 504.833,497.167 504.833,497.167 503.5,496.5 Z"/></g>
<g><path style="opacity:0.09" fill="#999895" d="M 506.5,496.5 C 506.5,496.833 506.5,497.167 506.5,497.5C 505.83,497.019 505.83,496.685 506.5,496.5 Z"/></g>
<g><path style="opacity:0.09" fill="#999995" d="M 506.5,497.5 C 507.833,498.167 507.833,498.167 506.5,497.5 Z"/></g>
<g><path style="opacity:0.09" fill="#999897" d="M 511.5,497.5 C 511.5,497.833 511.5,498.167 511.5,498.5C 510.83,498.019 510.83,497.685 511.5,497.5 Z"/></g>
<g><path style="opacity:0.09" fill="#999995" d="M 488.5,498.5 C 489.833,499.167 489.833,499.167 488.5,498.5 Z"/></g>
<g><path style="opacity:0.09" fill="#9b9997" d="M 503.5,499.5 C 503.897,498.475 504.563,498.308 505.5,499C 504.906,499.464 504.239,499.631 503.5,499.5 Z"/></g>
<g><path style="opacity:0.09" fill="#999895" d="M 508.5,498.5 C 509.833,499.167 509.833,499.167 508.5,498.5 Z"/></g>
<g><path style="opacity:0.09" fill="#9a9997" d="M 494.5,499.5 C 495.833,500.167 495.833,500.167 494.5,499.5 Z"/></g>
<g><path style="opacity:0.18" fill="#979793" d="M 507.5,500.5 C 506.833,499.167 506.833,499.167 507.5,500.5 Z"/></g>
<g><path style="opacity:0.18" fill="#999694" d="M 511.5,499.5 C 511.5,499.833 511.5,500.167 511.5,500.5C 510.83,500.019 510.83,499.685 511.5,499.5 Z"/></g>
<g><path style="opacity:0.09" fill="#9a9a97" d="M 492.5,500.5 C 493.833,501.167 493.833,501.167 492.5,500.5 Z"/></g>
<g><path style="opacity:0.18" fill="#989795" d="M 503.5,501.5 C 503.897,500.475 504.563,500.308 505.5,501C 504.906,501.464 504.239,501.631 503.5,501.5 Z"/></g>
<g><path style="opacity:0.09" fill="#9a9996" d="M 2.5,501.5 C 3.83333,502.167 3.83333,502.167 2.5,501.5 Z"/></g>
<g><path style="opacity:0.275" fill="#959491" d="M 490.5,501.5 C 491.833,502.167 491.833,502.167 490.5,501.5 Z"/></g>
<g><path style="opacity:0.18" fill="#989794" d="M 490.5,502.5 C 489.833,503.167 489.833,503.167 490.5,502.5 Z"/></g>
<g><path style="opacity:0.09" fill="#999995" d="M 482.5,504.5 C 481.833,503.167 481.833,503.167 482.5,504.5 Z"/></g>
<g><path style="opacity:0.09" fill="#9a9896" d="M 494.5,504.5 C 493.662,504.842 493.328,505.508 493.5,506.5C 490.626,503.811 490.959,503.144 494.5,504.5 Z"/></g>
<g><path style="opacity:0.18" fill="#999794" d="M 495.5,503.5 C 496.833,504.167 496.833,504.167 495.5,503.5 Z"/></g>
<g><path style="opacity:0.365" fill="#939390" d="M 499.5,503.5 C 500.833,504.167 500.833,504.167 499.5,503.5 Z"/></g>
<g><path style="opacity:0.09" fill="#989795" d="M 502.5,504.5 C 503.238,502.24 504.238,502.073 505.5,504C 504.552,504.483 503.552,504.649 502.5,504.5 Z"/></g>
<g><path style="opacity:0.454" fill="#979694" d="M 507.5,500.5 C 508.833,500.833 510.167,501.167 511.5,501.5C 511.5,504.833 511.5,508.167 511.5,511.5C 507.167,511.5 502.833,511.5 498.5,511.5C 497.047,510.175 497.381,509.342 499.5,509C 499.21,507.522 499.21,506.022 499.5,504.5C 500.458,505.962 501.624,507.295 503,508.5C 504.487,507.747 504.654,506.914 503.5,506C 505.291,505.585 506.624,504.585 507.5,503C 506.402,502.23 506.402,501.397 507.5,500.5 Z"/></g>
<g><path style="opacity:0.275" fill="#969592" d="M 482.5,504.5 C 483.833,505.167 483.833,505.167 482.5,504.5 Z"/></g>
<g><path style="opacity:0.18" fill="#989894" d="M 494.5,504.5 C 494.833,504.5 495.167,504.5 495.5,504.5C 495.5,504.833 495.5,505.167 495.5,505.5C 495.167,505.167 494.833,504.833 494.5,504.5 Z"/></g>
<g><path style="opacity:0.18" fill="#989795" d="M 502.5,504.5 C 501.833,505.167 501.833,505.167 502.5,504.5 Z"/></g>
<g><path style="opacity:0.09" fill="#9b9997" d="M 491.5,507.5 C 490.475,507.103 490.308,506.437 491,505.5C 491.464,506.094 491.631,506.761 491.5,507.5 Z"/></g>
<g><path style="opacity:0.365" fill="#949390" d="M 495.5,505.5 C 496.167,505.5 496.5,505.833 496.5,506.5C 496.167,506.167 495.833,505.833 495.5,505.5 Z"/></g>
<g><path style="opacity:0.09" fill="#9a9995" d="M 4.5,506.5 C 5.83333,507.167 5.83333,507.167 4.5,506.5 Z"/></g>
<g><path style="opacity:0.09" fill="#999996" d="M 482.5,506.5 C 483.833,507.167 483.833,507.167 482.5,506.5 Z"/></g>
<g><path style="opacity:0.09" fill="#999895" d="M 493.5,506.5 C 494.833,507.167 494.833,507.167 493.5,506.5 Z"/></g>
<g><path style="opacity:0.18" fill="#989794" d="M 496.5,506.5 C 497.833,507.167 497.833,507.167 496.5,506.5 Z"/></g>
<g><path style="opacity:0.09" fill="#9b9996" d="M 6.5,507.5 C 7.83333,508.167 7.83333,508.167 6.5,507.5 Z"/></g>
<g><path style="opacity:0.09" fill="#9a9a96" d="M 482.5,507.5 C 482.5,507.833 482.5,508.167 482.5,508.5C 481.83,508.019 481.83,507.685 482.5,507.5 Z"/></g>
<g><path style="opacity:0.09" fill="#999996" d="M 487.5,508.5 C 486.833,507.167 486.833,507.167 487.5,508.5 Z"/></g>
<g><path style="opacity:0.275" fill="#959491" d="M 488.5,507.5 C 489.833,508.167 489.833,508.167 488.5,507.5 Z"/></g>
<g><path style="opacity:0.365" fill="#949490" d="M 491.5,507.5 C 492.167,507.5 492.5,507.833 492.5,508.5C 492.167,508.167 491.833,507.833 491.5,507.5 Z"/></g>
<g><path style="opacity:0.365" fill="#959391" d="M 482.5,508.5 C 483.833,509.167 483.833,509.167 482.5,508.5 Z"/></g>
<g><path style="opacity:0.12" fill="#999795" d="M 492.5,508.5 C 493.239,508.369 493.906,508.536 494.5,509C 493.402,509.77 493.402,510.603 494.5,511.5C 493.833,511.5 493.167,511.5 492.5,511.5C 492.5,510.833 492.167,510.5 491.5,510.5C 491.833,509.833 492.167,509.167 492.5,508.5 Z"/></g>
<g><path style="opacity:0.09" fill="#9a9896" d="M 495.5,508.5 C 496.525,508.897 496.692,509.563 496,510.5C 495.536,509.906 495.369,509.239 495.5,508.5 Z"/></g>
<g><path style="opacity:0.09" fill="#999895" d="M 484.5,509.5 C 485.833,510.167 485.833,510.167 484.5,509.5 Z"/></g>
<g><path style="opacity:0.09" fill="#9a9896" d="M 487.5,508.5 C 487.833,508.5 488.167,508.5 488.5,508.5C 488.5,509.167 488.5,509.833 488.5,510.5C 486.302,510.591 485.969,509.925 487.5,508.5 Z"/></g>
<g><path style="opacity:0.18" fill="#989894" d="M 488.5,510.5 C 489.167,510.5 489.5,510.833 489.5,511.5C 489.167,511.167 488.833,510.833 488.5,510.5 Z"/></g>
<g><path style="opacity:0.09" fill="#9a9b96" d="M 491.5,510.5 C 491.5,510.833 491.5,511.167 491.5,511.5C 490.83,511.019 490.83,510.685 491.5,510.5 Z"/></g>
</svg>
